<svg width="293" height="201" viewBox="0 0 293 201" fill="none" xmlns="http://www.w3.org/2000/svg">
<g clip-path="url(#clip0_1426_455)">
<path d="M101.802 192.537C101.569 192.548 101.338 192.487 101.141 192.361C100.944 192.236 100.79 192.053 100.7 191.837C100.61 191.621 100.588 191.382 100.638 191.153C100.688 190.924 100.806 190.716 100.977 190.557L101.055 190.246C101.045 190.221 101.035 190.196 101.024 190.171C100.79 189.615 100.396 189.14 99.8933 188.807C99.3905 188.474 98.8009 188.298 98.1985 188.3C97.5961 188.302 97.0078 188.483 96.5075 188.82C96.0072 189.156 95.6172 189.634 95.3865 190.193C94.4644 192.421 93.2904 194.654 93.0013 197.011C92.874 198.053 92.9277 199.109 93.1601 200.132C90.9943 195.39 89.8697 190.237 89.8624 185.021C89.862 183.712 89.9344 182.404 90.0795 181.103C90.1993 180.037 90.3656 178.978 90.5784 177.927C91.7392 172.223 94.2315 166.877 97.8506 162.328C99.6022 161.369 101.019 159.894 101.909 158.102C102.232 157.457 102.46 156.77 102.586 156.06C102.389 156.086 101.841 153.066 101.99 152.88C101.715 152.461 101.222 152.252 100.921 151.843C99.4258 149.808 97.365 150.163 96.2892 152.929C93.9911 154.093 93.9689 156.024 95.379 157.88C96.2761 159.062 96.3994 160.66 97.1865 161.925C97.1055 162.029 97.0213 162.13 96.9403 162.234C95.46 164.144 94.1697 166.196 93.0881 168.359C93.3511 165.936 93.0372 163.484 92.1721 161.206C91.2953 159.084 89.6519 157.296 88.2048 155.461C86.4665 153.256 82.9019 154.218 82.5957 157.013C82.5927 157.04 82.5898 157.067 82.587 157.094C82.8019 157.215 83.0123 157.345 83.2182 157.481C83.4769 157.655 83.6773 157.902 83.7932 158.192C83.9091 158.482 83.9351 158.8 83.8679 159.105C83.8006 159.41 83.6431 159.687 83.4161 159.9C83.1891 160.114 82.9032 160.253 82.5958 160.301L82.5643 160.306C82.6409 161.083 82.7762 161.854 82.9692 162.611C81.1127 169.817 85.1208 172.441 90.844 172.559C90.9703 172.624 91.0934 172.689 91.2198 172.751C90.133 175.842 89.4514 179.062 89.1919 182.329C89.045 184.257 89.0537 186.193 89.2178 188.119L89.2081 188.051C88.7935 185.909 87.655 183.976 85.985 182.579C83.5046 180.534 80.0003 179.781 77.3244 178.137C77.0401 177.954 76.7094 177.856 76.3715 177.856C76.0335 177.855 75.7024 177.951 75.4171 178.133C75.1318 178.315 74.9043 178.575 74.7614 178.882C74.6185 179.189 74.5662 179.531 74.6106 179.868C74.6142 179.891 74.6178 179.915 74.6215 179.939C75.0204 180.102 75.4088 180.29 75.7844 180.502C75.9994 180.623 76.2098 180.753 76.4157 180.889C76.6743 181.063 76.8747 181.311 76.9906 181.6C77.1065 181.89 77.1325 182.208 77.0653 182.513C76.998 182.818 76.8405 183.095 76.6136 183.308C76.3866 183.522 76.1006 183.661 75.7932 183.709L75.7617 183.714C75.7391 183.717 75.7196 183.72 75.697 183.724C76.3785 185.357 77.3351 186.86 78.5249 188.168C79.6857 194.458 84.6716 195.055 90.005 193.223H90.0082C90.5934 195.776 91.4413 198.26 92.5381 200.636H101.576C101.608 200.535 101.637 200.431 101.667 200.33C100.83 200.383 99.9901 200.333 99.1657 200.181C99.8363 199.355 100.507 198.523 101.177 197.697C101.192 197.681 101.206 197.665 101.219 197.648C101.56 197.226 101.903 196.806 102.243 196.383L102.243 196.383C102.261 195.087 102.113 193.795 101.802 192.537Z" fill="#F2F2F2"/>
<path d="M32.2875 178.818L34.7811 181.463L46.36 172.853L42.6797 168.949L32.2875 178.818Z" fill="#A0616A"/>
<path d="M36.3738 180.281L33.5507 177.619L32.8575 176.967L25.6704 182.734L27.54 184.718L29.7406 183.301L28.7296 185.98L33.6865 191.238C33.924 191.49 34.2356 191.659 34.5758 191.721C34.916 191.783 35.267 191.734 35.5776 191.582C35.8882 191.429 36.1421 191.181 36.3022 190.874C36.4624 190.566 36.5204 190.215 36.4678 189.872L35.398 182.926L37.2831 181.137L36.3738 180.281Z" fill="#2F2E41"/>
<path d="M87.0913 82.508L86.3006 91.1705C86.3006 91.1705 84.9206 97.697 85.8762 97.168C86.8317 96.639 85.1185 99.0199 85.5697 101.085C86.0209 103.149 81.7154 118.546 83.6655 116.951C85.6155 115.356 82.5385 126.374 80.5925 131.81C79.9966 133.49 79.3844 135.191 78.7681 136.88C78.6466 137.222 78.5249 137.559 78.3994 137.901C77.6006 140.098 76.8019 142.263 76.0358 144.305C75.9263 144.59 75.8208 144.875 75.7155 145.156C75.7114 145.164 75.7114 145.172 75.7074 145.172C73.1857 151.833 71.0248 157.073 70.1614 157.94C69.7114 158.392 62.5723 163.568 55.3763 168.751C47.8236 174.191 40.21 179.643 40.21 179.643L33.0991 172.157C33.0991 172.157 33.2694 172.108 33.5897 172.01C34.1816 171.839 35.2762 171.518 36.7114 171.091C42.6951 169.321 35.0937 166.566 40.5263 164.597C42.0587 164.044 43.0803 163.612 43.3113 163.384C44.6614 162.062 46.4736 158.909 47.329 160.231C48.1843 161.553 52.0642 151.727 53.183 150.755C53.783 150.23 55.7412 147.776 57.4196 145.62C58.8627 143.764 60.1032 142.125 60.1032 142.125C60.1032 142.125 60.1276 141.246 60.164 139.846C60.2169 137.775 60.2939 134.557 60.375 131.334C60.3709 131.33 60.3709 131.33 60.375 131.33C60.4033 130.117 60.4316 128.905 60.4602 127.753C60.4804 126.862 60.5005 126.004 60.5209 125.21C60.5736 122.834 60.61 121.036 60.61 120.588C60.61 119.119 60.61 120.263 61.7655 119.376C61.938 119.24 62.1019 119.093 62.256 118.936C62.503 118.713 62.7309 118.469 62.9372 118.208C63.0223 118.025 62.4912 118.273 61.8019 118.135C61.4287 118.06 61.0835 117.882 60.8046 117.622C59.3532 116.312 60.9182 112.284 60.9182 112.284C57.6182 105.66 57.8575 100.228 59.4019 96.0408C60.5569 93.0364 62.39 90.3415 64.7573 88.1678C65.6583 87.306 66.64 86.5334 67.6886 85.8606L67.79 85.3114L68.9048 79.2529C69.4977 78.926 70.1143 78.6445 70.7493 78.4107C72.7295 77.6976 74.8543 77.4852 76.9357 77.7923C79.0044 78.0927 81.0072 78.7434 82.8588 79.7168C84.3724 80.4799 85.7926 81.4166 87.0913 82.508Z" fill="#2F2E41"/>
<path d="M55.9542 192.314L59.5668 192.652L62.611 178.515L57.2787 178.017L55.9542 192.314Z" fill="#A0616A"/>
<path d="M66.3587 197.855L60.991 193.343L61.2343 190.747L59.9858 190.707L56.1182 190.58H56.1141L55.1655 190.548L53.5559 199.638L56.2681 199.89L56.9856 197.367L57.9871 200.053L59.4222 200.187L65.1668 200.724C65.2155 200.728 65.2682 200.732 65.3168 200.732C65.5452 200.733 65.771 200.684 65.9793 200.59C66.1876 200.496 66.3736 200.359 66.525 200.187C66.7601 199.929 66.904 199.6 66.9343 199.251C66.9581 198.989 66.9181 198.725 66.8178 198.482C66.7176 198.239 66.56 198.024 66.3587 197.855Z" fill="#2F2E41"/>
<path d="M76.0358 144.305C74.6614 151.813 68.8437 169.414 65.3249 179.717C63.7235 184.424 62.6047 187.61 62.6047 187.61L60.7803 187.032H60.7762L57.6911 186.056L56.5681 185.698H56.5639L55.2018 185.262C55.2018 185.262 55.36 176.856 55.3762 168.751C55.3883 165.354 55.3721 162.005 55.3073 159.352C55.2343 156.459 55.1086 154.388 54.9019 153.977C54.0464 152.292 55.4776 152.113 56.9897 151.69C58.5059 151.263 57.3221 150.62 56.7342 149.253C56.3371 148.342 57.1194 147.125 57.6749 146.433C57.8281 146.239 57.9919 146.053 58.1654 145.876C58.1654 145.876 57.8978 145.782 57.4195 145.62C58.8626 143.764 60.1032 142.125 60.1032 142.125C60.1032 142.125 60.1275 141.246 60.1639 139.846C60.2168 137.775 60.2938 134.556 60.375 131.334C60.3708 131.33 60.3708 131.33 60.375 131.33C60.4033 130.117 60.4316 128.905 60.4601 127.753C62.7789 129.54 65.033 131.289 67.0763 132.909C67.0788 132.911 67.0808 132.913 67.0822 132.916C67.0836 132.919 67.0843 132.922 67.0844 132.925C71.9938 136.819 75.6791 139.944 76.1979 140.936C76.4331 141.384 76.3519 142.58 76.0358 144.305Z" fill="#2F2E41"/>
<path d="M196.899 11.756C197.575 11.6926 198.249 11.8963 198.777 12.3239C199.306 12.7514 199.647 13.3691 199.729 14.0454C199.743 14.1831 199.746 14.3218 199.738 14.46L208.098 18.0432L207.779 22.9405L196.855 16.7893C196.287 16.7101 195.76 16.4443 195.358 16.0333C194.956 15.6223 194.701 15.0893 194.633 14.5175C194.597 14.1917 194.625 13.862 194.716 13.5473C194.807 13.2325 194.959 12.9389 195.163 12.683C195.368 12.4272 195.62 12.2143 195.906 12.0563C196.192 11.8984 196.507 11.7986 196.831 11.7626C196.854 11.7601 196.876 11.7579 196.899 11.756Z" fill="#FFB6B6"/>
<path d="M253.778 41.9864C253.572 41.0369 253.188 40.1353 252.647 39.3293C252.497 39.0999 252.333 38.8798 252.157 38.6701C251.5 37.8849 250.888 37.1647 250.32 36.5218C249.976 36.1189 249.639 35.7446 249.323 35.3989C247.487 33.3766 246.282 32.3066 245.731 32.217C245.463 32.1723 245.2 32.1397 244.944 32.1071C243.635 31.9444 242.686 31.8264 242.658 30.4388C242.655 30.24 242.669 30.0413 242.698 29.8448C242.748 29.5147 242.819 29.1884 242.913 28.8683C242.967 28.6868 243.009 28.502 243.039 28.315C243.08 28.075 243.063 27.8958 242.934 27.7859C242.771 27.6518 242.5 27.6721 241.989 27.8755C241.908 27.9081 241.815 27.9447 241.717 27.9894C241.685 28.0017 241.653 28.018 241.616 28.0343C241.551 28.0627 241.478 28.0953 241.405 28.1318C240.793 28.4249 239.849 28.4614 238.77 28.3515C235.588 28.0261 231.282 26.4149 231.23 26.3944L204.116 15.8196L203.865 16.2265L203.269 17.1948L203.062 17.5284L202.827 17.9108L201.801 19.5709L201.282 20.4091L210.039 27.0373L210.992 27.7575L211.811 28.3801L228.53 41.0382L234.765 45.1681L236.155 46.0875L242.082 50.01C242.934 50.5749 243.89 50.9628 244.894 51.1508C245.898 51.3389 246.929 51.3232 247.927 51.1048C248.924 50.8863 249.868 50.4695 250.702 49.879C251.537 49.2885 252.245 48.5361 252.785 47.6664C253.838 45.9739 254.194 43.9373 253.778 41.9864Z" fill="#E6E6E6"/>
<path d="M292.595 201H0.405407C0.297886 201 0.194769 200.957 0.118741 200.881C0.0427121 200.805 0 200.701 0 200.593C0 200.485 0.0427121 200.382 0.118741 200.305C0.194769 200.229 0.297886 200.186 0.405407 200.186H292.595C292.702 200.186 292.805 200.229 292.881 200.305C292.957 200.382 293 200.485 293 200.593C293 200.701 292.957 200.805 292.881 200.881C292.805 200.957 292.702 201 292.595 201Z" fill="#E6E6E6"/>
<path d="M66.8577 67.8646L67.6174 74.9371L67.1706 84.2108L87.6376 81.7707L89.5605 67.8646L87.1102 67.889L66.8577 67.8646Z" fill="#FFB6B6"/>
<path d="M84.2671 45.0215L76.5643 38.9182L72.5209 38.6823L66.5212 42.5398L65.0521 50.062L61.5776 58.5326L66.6737 81.3921C66.6737 81.3921 67.1517 83.0325 65.8992 83.2295C64.6467 83.4266 64.7969 85.8445 64.7969 85.8445C64.7969 85.8445 65.0519 87.9401 63.8357 88.1246C62.6195 88.3092 59.3764 88.3092 62.2142 91.9711C65.0521 95.6331 87.4978 81.783 87.4978 81.783L90.7578 64.6148C90.7578 64.6148 97.0802 56.0921 90.2715 51.211L84.2671 45.0215Z" fill="#E6E6E6"/>
<path d="M50.641 96.923C50.3016 96.4979 50.0592 96.0033 49.9309 95.4741C49.8025 94.9448 49.7914 94.3937 49.8982 93.8596C50.005 93.3256 50.2272 92.8215 50.5491 92.383C50.871 91.9444 51.2848 91.582 51.7613 91.3213L61.4502 58.6873L67.5085 61.7485L56.9572 93.0279C57.3405 93.8604 57.4062 94.8051 57.1418 95.683C56.8775 96.5609 56.3014 97.311 55.5229 97.7911C54.7444 98.2712 53.8174 98.448 52.9176 98.288C52.0178 98.128 51.2078 97.6423 50.641 96.923Z" fill="#A0616A"/>
<path d="M67.9126 42.2378C67.9126 42.2378 66.1807 41.3141 64.9962 45.3114C64.0478 48.5116 56.3526 67.5733 56.2545 72.2077C55.6212 72.3423 55.0506 72.6847 54.6325 73.1807C54.2144 73.6767 53.9726 74.2983 53.9452 74.9474L63.4596 76.227C65.1222 74.8197 65.5584 72.9188 64.9151 72.3546L66.9809 66.692L75.5992 48.6754L69.1762 42.8832L67.9126 42.2378Z" fill="#E6E6E6"/>
<path d="M118.751 86.1962C118.874 85.6656 118.88 85.1145 118.767 84.5815C118.655 84.0486 118.427 83.5469 118.101 83.1117C117.775 82.6765 117.357 82.3185 116.878 82.0627C116.399 81.807 115.869 81.6599 115.327 81.6316L93.1015 56.1553L88.3867 61.8015L111.378 85.4255C111.391 86.3425 111.739 87.2228 112.355 87.8996C112.972 88.5765 113.815 89.0028 114.723 89.0978C115.632 89.1928 116.544 88.9499 117.287 88.4151C118.029 87.8803 118.55 87.0908 118.751 86.1962Z" fill="#A0616A"/>
<path d="M79.6157 44.3848C79.6157 44.3848 80.7792 42.8003 83.5696 45.8904C85.8036 48.3643 100.955 62.2116 103.041 66.3477C103.67 66.1942 104.332 66.2552 104.922 66.521C105.513 66.7868 105.999 67.2423 106.303 67.8157L98.2758 73.099C96.1703 72.5516 94.958 71.0269 95.2949 70.2391L90.9924 66.0299L75.4587 53.5255L78.7544 45.5152L79.6157 44.3848Z" fill="#E6E6E6"/>
<path d="M162.498 114.334C193.844 114.334 219.255 88.83 219.255 57.3698C219.255 25.9096 193.844 0.406006 162.498 0.406006C131.152 0.406006 105.741 25.9096 105.741 57.3698C105.741 88.83 131.152 114.334 162.498 114.334Z" fill="#FF6E31"/>
<path opacity="0.2" d="M159.813 77.5308C157.213 80.1403 153.687 81.6064 150.01 81.6064C146.333 81.6064 142.806 80.1403 140.206 77.5308C137.972 75.2874 136.568 72.3453 136.227 69.1918C135.886 66.0383 136.629 62.8626 138.332 60.1907L135.282 63.314C132.682 65.9235 131.221 69.4628 131.221 73.1533C131.221 76.8438 132.682 80.3831 135.282 82.9927C137.882 85.6022 141.409 87.0683 145.086 87.0683C148.763 87.0683 152.289 85.6023 154.89 82.9927L161.649 75.9485L161.752 75.5106L159.813 77.5308Z" fill="black"/>
<path opacity="0.2" d="M166.252 34.0118C169.291 31.9344 173.028 31.1537 176.641 31.8415C180.254 32.5294 183.446 34.6294 185.516 37.6796C187.295 40.3016 188.128 43.4548 187.877 46.6168C187.626 49.7787 186.306 52.7599 184.137 55.0664L187.713 52.5684C190.753 50.4909 192.845 47.2869 193.53 43.661C194.216 40.0352 193.438 36.2847 191.368 33.2345C189.298 30.1843 186.106 28.0842 182.493 27.3964C178.88 26.7085 175.143 27.4892 172.104 29.5666L164.155 35.223L163.973 35.634L166.252 34.0118Z" fill="black"/>
<path d="M145.086 88.8092C142.103 88.8092 139.188 87.9216 136.707 86.2584C134.227 84.5953 132.295 82.2315 131.153 79.4658C130.012 76.7001 129.713 73.6568 130.295 70.7207C130.877 67.7847 132.313 65.0878 134.422 62.971L147.22 49.8663C148.62 48.459 150.283 47.3423 152.113 46.5802C153.943 45.818 155.905 45.4254 157.886 45.4246C159.868 45.4238 161.83 45.8149 163.661 46.5756C165.492 47.3362 167.155 48.4515 168.556 49.8578C168.784 50.0867 168.912 50.3971 168.912 50.7208C168.912 51.0445 168.784 51.3549 168.556 51.5838C168.328 51.8127 168.019 51.9413 167.696 51.9413C167.374 51.9413 167.064 51.8127 166.836 51.5838C164.464 49.2032 161.247 47.8659 157.893 47.8659C154.538 47.8659 151.321 49.2033 148.949 51.5839C147.069 58.2349 143.008 62.7984 136.151 64.6886C134.974 65.8665 134.041 67.2656 133.403 68.8058C132.766 70.346 132.437 71.9972 132.435 73.6651C132.434 75.3329 132.76 76.9847 133.395 78.526C134.03 80.0673 134.961 81.4679 136.136 82.6478C137.31 83.8277 138.705 84.7638 140.24 85.4025C141.775 86.0412 143.421 86.3701 145.082 86.3703C146.744 86.3705 148.39 86.042 149.925 85.4036C151.46 84.7653 152.855 83.8296 154.03 82.6499C153.753 79.9213 154.547 77.3565 160.773 75.622C160.884 75.5061 161.016 75.4132 161.163 75.3486C161.309 75.2841 161.467 75.2492 161.627 75.246C161.787 75.2428 161.946 75.2712 162.095 75.3298C162.244 75.3883 162.38 75.4758 162.495 75.5872C162.61 75.6986 162.703 75.8317 162.766 75.9789C162.83 76.1262 162.865 76.2846 162.867 76.4451C162.87 76.6057 162.841 76.7652 162.783 76.9146C162.724 77.0639 162.636 77.2002 162.525 77.3155L155.766 84.3597C154.367 85.7739 152.704 86.8955 150.87 87.6593C149.037 88.4231 147.071 88.8139 145.086 88.8092Z" fill="white"/>
<path d="M165.864 70.2705C163.882 70.2759 161.92 69.8868 160.089 69.1258C158.259 68.3648 156.597 67.247 155.2 65.8371C154.972 65.6081 154.844 65.2976 154.844 64.9739C154.844 64.6501 154.972 64.3397 155.2 64.1108C155.428 63.8819 155.738 63.7533 156.06 63.7534C156.383 63.7534 156.692 63.882 156.92 64.111C158.095 65.2898 159.489 66.2249 161.023 66.8628C162.558 67.5008 164.203 67.8292 165.864 67.8292C167.525 67.8292 169.169 67.5008 170.704 66.8629C172.238 66.2249 173.633 65.2898 174.807 64.111C176.428 54.3114 183.036 52.9285 188.78 50.0874C189.955 48.9086 190.886 47.5092 191.522 45.969C192.158 44.4289 192.485 42.7781 192.485 41.1111C192.485 39.444 192.158 37.7933 191.522 36.2531C190.886 34.7129 189.955 33.3135 188.78 32.1347C187.606 30.956 186.211 30.0209 184.677 29.3829C183.142 28.745 181.497 28.4167 179.836 28.4167C178.175 28.4167 176.531 28.745 174.996 29.383C173.462 30.021 172.067 30.956 170.893 32.1348C169.295 36.7616 167.726 41.4429 162.967 40.0893C162.854 40.2027 162.72 40.2926 162.573 40.3539C162.425 40.4153 162.267 40.4468 162.107 40.4468C161.785 40.4469 161.475 40.3183 161.247 40.0894C161.019 39.8605 160.891 39.55 160.891 39.2263C160.891 38.9026 161.019 38.5921 161.247 38.3632L169.173 30.4087C170.573 29.0033 172.236 27.8884 174.065 27.1277C175.895 26.3671 177.856 25.9756 179.836 25.9756C181.817 25.9756 183.778 26.3671 185.607 27.1277C187.437 27.8883 189.1 29.0032 190.5 30.4086C191.9 31.8141 193.011 33.4826 193.769 35.3189C194.527 37.1553 194.917 39.1234 194.917 41.111C194.917 43.0987 194.527 45.0668 193.769 46.9032C193.011 48.7395 191.9 50.408 190.5 51.8135L176.527 65.8373C175.13 67.2472 173.468 68.3649 171.638 69.1259C169.807 69.8868 167.845 70.2759 165.864 70.2705Z" fill="white"/>
<path d="M211.811 28.3802C209.427 24.3171 206.559 20.561 203.269 17.1949C202.535 16.4463 201.777 15.7138 201.003 15.0017C200.573 14.6071 200.139 14.2205 199.697 13.842C198.858 13.1179 197.994 12.418 197.115 11.7427C187.177 4.11318 175.009 -0.014158 162.497 3.64906e-05C130.981 3.64906e-05 105.335 25.7355 105.335 57.3707C105.333 60.859 105.649 64.34 106.279 67.7705C106.28 67.7897 106.283 67.8088 106.287 67.8275C106.575 69.4022 106.932 70.9564 107.345 72.4823C110.275 83.252 116.271 92.9299 124.6 100.33C132.929 107.729 143.228 112.529 154.235 114.141C165.242 115.752 176.478 114.105 186.566 109.402C196.654 104.699 205.155 97.1441 211.028 87.6631C211.819 86.3855 212.562 85.0753 213.258 83.7326C217.697 75.1353 219.893 65.5491 219.64 55.8693C219.387 46.1894 216.693 36.732 211.811 28.3802ZM162.497 113.928C155.096 113.93 147.767 112.469 140.929 109.628C134.091 106.786 127.878 102.62 122.645 97.3682C117.411 92.1159 113.261 85.8801 110.43 79.0171C107.599 72.1542 106.143 64.7986 106.145 57.3707C106.145 26.1829 131.427 0.813805 162.497 0.813805C170.016 0.818083 177.458 2.33304 184.384 5.26937C191.311 8.20571 197.582 12.504 202.827 17.9109C204.195 19.3124 205.486 20.7876 206.694 22.3298C207.891 23.8389 209.007 25.4103 210.039 27.0374C214.34 33.8181 217.15 41.4415 218.283 49.3987C219.415 57.356 218.844 65.4641 216.607 73.1822C216.108 74.9073 215.524 76.596 214.867 78.252C214.207 79.9121 213.473 81.5396 212.662 83.1183C207.921 92.3779 200.733 100.15 191.885 105.584C183.037 111.018 172.87 113.905 162.497 113.928Z" fill="#FF6E31"/>
<path d="M240.259 192.444L236.533 192.412L234.883 177.651L240.383 177.697L240.259 192.444Z" fill="#FFB6B6"/>
<path d="M241.247 190.719L240.274 190.654L236.305 190.381L235.028 190.296L235.004 192.969L229.053 197.021C228.759 197.222 228.536 197.511 228.418 197.848C228.3 198.184 228.291 198.549 228.395 198.89C228.498 199.232 228.707 199.531 228.992 199.744C229.276 199.958 229.622 200.074 229.977 200.077L237.384 200.138L238.681 197.502L239.155 200.154L241.953 200.179L241.247 190.719Z" fill="#2F2E41"/>
<path d="M279.49 189.711L275.929 190.81L269.917 177.237L275.174 175.615L279.49 189.711Z" fill="#FFB6B6"/>
<path d="M279.915 187.769L278.966 188.001L275.103 188.941L273.858 189.246L274.641 191.805L270.185 197.469C269.992 197.716 269.871 198.012 269.838 198.325C269.804 198.637 269.859 198.952 269.996 199.235C270.132 199.517 270.345 199.756 270.61 199.923C270.875 200.09 271.182 200.178 271.495 200.179C271.66 200.178 271.823 200.154 271.981 200.106L279.064 197.921L279.505 195.011L280.758 197.396L283.43 196.57L279.915 187.769Z" fill="#2F2E41"/>
<path d="M232.764 68.3223L225.653 89.0627L225.418 90.7224C223.626 92.4298 225.877 92.9923 225.033 93.4426C224.189 93.8929 223.622 95.1551 224.759 95.3807C225.896 95.6062 229.563 176.502 234.4 179.643C239.237 182.784 242.18 185.056 241.292 180.457C240.934 178.604 241.44 168.669 242.172 157.465C242.255 156.195 243.566 154.851 242.429 153.617C241.292 152.382 242.569 151.57 242.641 150.545C243.661 135.915 244.839 121.471 244.839 121.471C244.839 121.471 252.377 147.453 254.334 145.442C256.292 143.431 255.517 148.383 256.115 149.863C256.615 151.099 254.482 153.528 257.617 153.566C260.751 153.603 268.113 178.858 268.86 178.83C270.339 178.773 274.498 178.933 276.968 178.423C278.187 178.171 272.774 159.05 268.253 142.538C267.892 141.222 265.93 141.191 267.192 138.649C268.454 136.107 262.176 119.658 262.714 118.897C264.144 116.878 264.689 116 263.279 115.868C261.868 115.736 261.452 116.512 261.375 114.553C261.299 112.595 261.056 107.765 261.056 107.765C261.056 107.765 260.034 88.6619 252.88 78.1078L252.27 71.837L232.764 68.3223Z" fill="#2F2E41"/>
<path d="M250.529 28.7235L241.099 30.0711L240.53 36.9243L235.877 44.23C235.877 44.23 225.533 51.5356 232.747 63.0762C230.002 73.0176 227.272 82.5518 224.67 88.9082C222.643 101.522 240.802 102.731 261.562 98.2665C261.562 98.2665 261.276 92.8732 259.392 90.2803C257.508 87.6875 258.534 87.1214 258.534 87.1214L257.217 82.2774C257.962 75.2755 255.447 74.6471 254.265 71.4121L257.854 37.8464L250.529 28.7235Z" fill="#E6E6E6"/>
<path d="M205.26 87.3929C205.359 86.7191 205.717 86.111 206.257 85.698C206.797 85.285 207.476 85.0998 208.15 85.1816C208.287 85.2004 208.422 85.2306 208.553 85.2717L214.016 77.9788L218.678 79.4586L210.119 88.6371C209.907 89.1722 209.524 89.6217 209.03 89.9155C208.537 90.2093 207.96 90.3308 207.39 90.2611C207.067 90.2183 206.755 90.1119 206.472 89.948C206.189 89.7841 205.941 89.5659 205.742 89.3059C205.543 89.0459 205.398 88.7491 205.313 88.4325C205.229 88.1159 205.207 87.7857 205.25 87.4607C205.253 87.4381 205.256 87.4155 205.26 87.3929Z" fill="#FFB6B6"/>
<path d="M253.778 41.9864C253.644 41.8195 253.499 41.6568 253.345 41.498C252.274 40.3904 250.895 39.6332 249.388 39.3254C247.881 39.0175 246.317 39.1735 244.9 39.7729C244.762 39.8298 244.624 39.8949 244.49 39.9601C239.646 42.3484 237.031 43.9393 236.715 44.684C236.605 44.9363 236.512 45.1844 236.419 45.4244C236.329 45.6605 236.244 45.8842 236.155 46.0876C235.782 46.9584 235.353 47.4996 234.258 47.2554C233.895 47.1663 233.545 47.031 233.216 46.8527C233.066 46.7794 232.928 46.7021 232.798 46.6288C232.328 46.3685 231.988 46.1814 231.757 46.3522C231.534 46.5189 231.526 46.9421 231.728 47.9228C231.795 48.332 231.784 48.7504 231.696 49.1555C231.428 50.3375 231.008 51.4795 230.447 52.5531C229.607 54.2359 228.662 55.8639 227.617 57.4275L217.973 71.229L217.32 72.1608L216.606 73.1822L210.915 81.328L211.251 81.6737L212.662 83.1182L212.974 83.4397L213.258 83.7325L213.992 84.4853L214.681 85.1892L230.058 72.6165L231.773 71.2127L234.846 68.6983L241.142 63.5513L253.057 52.4839C253.809 51.7909 254.414 50.9525 254.835 50.0191C255.257 49.0857 255.486 48.0765 255.509 47.052C255.509 46.9828 255.513 46.9177 255.513 46.8485C255.518 45.0743 254.904 43.3543 253.778 41.9864Z" fill="#E6E6E6"/>
<path d="M244.868 28.4741C250.687 28.4741 255.405 23.7392 255.405 17.8984C255.405 12.0576 250.687 7.32275 244.868 7.32275C239.048 7.32275 234.33 12.0576 234.33 17.8984C234.33 23.7392 239.048 28.4741 244.868 28.4741Z" fill="#FFB6B6"/>
<path d="M258.832 32.563C260.246 34.5944 261.192 36.9162 261.601 39.36C260.461 40.0918 259.135 40.4762 257.782 40.4665C257.736 40.2887 257.69 40.1109 257.638 39.933C257.245 38.556 256.662 37.2413 255.905 36.0274C256.009 37.3363 255.832 38.6524 255.387 39.887C254.672 39.5609 253.906 39.3625 253.123 39.3008C252.485 39.3007 251.856 39.4495 251.285 39.7355C250.622 37.5291 250.012 35.5005 249.579 34.0449C249.566 37.6937 244.237 40.8749 238.423 40.4139C238.213 40.2821 240.319 34.2821 240.116 34.1437C239.65 33.8342 239.197 33.4983 238.745 33.169C240.648 30.2183 242.715 27.0569 242.36 26.5828C242.387 27.1689 240.3 29.9878 238.029 32.6487C236.769 31.72 243.929 16.6112 240.392 15.3861C240.333 15.9196 239.552 15.9196 238.6 15.8077C238.349 14.9274 237.976 14.0871 237.491 13.3114C237.554 14.0928 237.46 14.8789 237.216 15.6232C236.276 15.6235 235.339 15.7228 234.42 15.9196C234.207 15.5838 233.973 15.2626 233.718 14.958C233.743 15.3292 233.732 15.702 233.685 16.0711C232.747 16.2753 231.972 16.5123 231.861 16.7034C231.126 16.4333 232.379 15.2149 231.92 14.5826C230.752 13.0019 232.484 10.6967 233.58 9.06331C235.831 5.71752 240.772 4.55834 244.27 6.56713C244.428 6.02046 245.235 5.65823 246.272 5.41454C246.711 5.31733 247.161 5.2753 247.61 5.2894C252.073 5.36843 258.268 9.06331 258.51 13.5354C258.53 13.9833 258.563 14.4706 258.596 14.9909C258.911 19.9965 258.523 24.6135 261.929 28.2754C263.163 29.5992 263.176 35.8693 262.704 39.0966C261.476 37.7991 260.604 32.7541 258.832 32.563Z" fill="#2F2E41"/>
<path d="M142.778 58.7987C143.45 58.7987 143.994 58.2522 143.994 57.5781C143.994 56.9039 143.45 56.3574 142.778 56.3574C142.106 56.3574 141.562 56.9039 141.562 57.5781C141.562 58.2522 142.106 58.7987 142.778 58.7987Z" fill="#6C63FF"/>
<path d="M181.292 57.985C181.963 57.985 182.508 57.4385 182.508 56.7644C182.508 56.0902 181.963 55.5437 181.292 55.5437C180.62 55.5437 180.075 56.0902 180.075 56.7644C180.075 57.4385 180.62 57.985 181.292 57.985Z" fill="#6C63FF"/>
<path d="M65.5197 22.2959C64.5941 24.6095 61.9828 29.1592 61.6292 31.6412L61.7883 31.4841C62.092 32.0047 62.4371 32.4999 62.8202 32.9648C63.5069 32.241 64.3362 31.6687 65.2554 31.2843C64.7535 32.3179 64.4628 33.442 64.4005 34.5901C65.3859 37.6903 69.9416 36.3098 72.6108 35.9712C75.2763 39.0313 78.8225 39.8298 83.4664 38.0705C84.7652 38.2048 86.2191 38.2862 87.1292 37.516C88.0393 36.7457 87.4973 35.3193 87.987 34.2404C91.4748 26.5556 88.256 23.783 85.5212 20.2984C84.9194 19.5316 84.9219 18.3873 84.1896 17.6556C83.1735 16.6415 81.6159 16.3296 80.1799 16.0797C80.5529 16.0994 80.9248 16.0224 81.2596 15.8562C81.5944 15.6899 81.8809 15.4399 82.0915 15.1303C82.2763 14.8183 82.3717 14.4612 82.3671 14.0984C82.3625 13.7355 82.2581 13.3809 82.0655 13.0738C81.5519 12.2192 80.4847 11.7223 79.4551 11.5982C78.4408 11.529 77.4219 11.6169 76.4341 11.8588C75.7943 11.9433 75.1747 12.142 74.6047 12.4457C74.3358 12.5897 74.1171 12.8127 73.9778 13.0848C73.8385 13.3569 73.7853 13.6652 73.8253 13.9685C73.9111 14.2486 74.0588 14.5056 74.2574 14.7204C74.4559 14.9352 74.7003 15.1023 74.9721 15.2091C75.3866 15.385 75.8226 15.5048 76.2686 15.5653C74.2201 15.2985 72.1393 15.664 70.3029 16.6133C68.0014 17.8454 66.4484 19.9835 65.5197 22.2959Z" fill="#2F2E41"/>
<path d="M77.9815 35.2668C82.525 35.2668 86.2083 31.5701 86.2083 27.01C86.2083 22.4499 82.525 18.7532 77.9815 18.7532C73.4379 18.7532 69.7546 22.4499 69.7546 27.01C69.7546 31.5701 73.4379 35.2668 77.9815 35.2668Z" fill="#A0616A"/>
<path d="M70.0652 22.5828C70.5422 24.0297 71.9053 24.4959 73.1652 24.7867C73.5625 24.8796 73.9622 24.9662 74.3656 25.0433C74.5144 24.8565 74.6727 24.6735 74.838 24.5005C75.5247 23.7767 76.3541 23.2044 77.2732 22.82C76.8758 23.6364 76.6116 24.5117 76.4908 25.4123C77.2525 25.5232 78.0184 25.6139 78.7885 25.6843C79.44 25.8234 80.12 25.7061 80.6878 25.3564C81.2556 25.0068 81.6678 24.4516 81.8393 23.8055C82.5404 24.9561 83.3693 26.0398 84.5029 26.4968C85.1512 26.7306 85.857 26.7498 86.5169 26.5517C87.1768 26.3535 87.7562 25.9484 88.17 25.3958C88.8236 24.4942 89.2768 23.4624 89.499 22.3699C89.8207 21.0887 89.9994 19.6127 89.3677 18.7997C88.8617 18.1418 87.9888 18.13 87.1834 18.1884C85.4058 18.3252 83.6469 18.6453 81.9345 19.1434L81.7896 19.4706C82.0839 17.6962 81.4455 15.9891 80.2645 15.3819C79.4679 14.976 78.5094 15.0441 77.5782 15.1264C76.382 15.18 75.2002 15.4094 74.0704 15.8073C72.7743 16.3076 71.6638 17.1977 70.8911 18.3557C70.0645 19.6154 69.6537 21.3333 70.0652 22.5828Z" fill="#2F2E41"/>
<path d="M81.7933 14.8655C81.7121 14.8414 81.9224 14.8723 81.8495 14.8743C81.8857 14.8722 81.9217 14.8671 81.9571 14.8592C81.9632 14.8579 82.0451 14.8317 81.9907 14.851C82.1128 14.8144 82.2218 14.743 82.3045 14.6455C82.4977 14.4056 82.6493 14.1348 82.7529 13.8444C82.8837 13.4607 83.0938 13.109 83.3696 12.8125C83.4478 12.7336 83.5435 12.6743 83.6489 12.6395C83.7542 12.6047 83.8663 12.5953 83.9759 12.6121C84.0856 12.6289 84.1897 12.6714 84.2799 12.7362C84.3702 12.801 84.4439 12.8862 84.4951 12.9849C84.5992 13.3658 84.5635 13.7715 84.3947 14.1283C84.2768 14.4913 84.1013 14.8328 83.875 15.1397C83.4958 15.6415 82.9793 16.0218 82.3885 16.2342C81.7046 16.4835 80.959 16.5049 80.262 16.2952C80.17 16.2569 80.091 16.1925 80.0347 16.1099C79.9785 16.0273 79.9474 15.9301 79.9452 15.8301C79.943 15.73 79.9699 15.6315 80.0225 15.5466C80.0751 15.4616 80.1512 15.3938 80.2415 15.3515L81.4038 14.874C81.465 14.847 81.5309 14.8323 81.5977 14.8309C81.6646 14.8294 81.731 14.8412 81.7933 14.8655C81.8556 14.8898 81.9125 14.9262 81.9608 14.9726C82.0091 15.019 82.0478 15.0744 82.0747 15.1358C82.1016 15.1973 82.1162 15.2634 82.1177 15.3304C82.1192 15.3975 82.1074 15.4642 82.0832 15.5268C82.059 15.5893 82.0227 15.6464 81.9765 15.6949C81.9303 15.7433 81.875 15.7822 81.8138 15.8092L80.6515 16.2867L80.631 15.343C80.776 15.385 80.9252 15.4106 81.0759 15.4193C81.2367 15.4355 81.399 15.4286 81.5578 15.3989C81.71 15.3789 81.8595 15.3423 82.0037 15.2898C82.0961 15.2559 82.1867 15.2174 82.2752 15.1743C82.3074 15.1586 82.3392 15.1424 82.3708 15.1255C82.3685 15.1267 82.5038 15.0477 82.4444 15.0848C82.5948 14.9884 82.7358 14.8781 82.8657 14.7554C82.9116 14.7119 82.9539 14.6647 82.9921 14.6143C83.0583 14.5327 83.1197 14.4472 83.176 14.3584C83.2905 14.1703 83.3811 13.9686 83.4459 13.758C83.4755 13.6694 83.5004 13.5794 83.5206 13.4883C83.5263 13.4383 83.5353 13.3887 83.5476 13.3399C83.5908 13.2237 83.5394 13.4078 83.5891 13.4582L83.8033 13.6166C83.8435 13.6287 83.886 13.6314 83.9274 13.6248C83.9689 13.6181 84.0083 13.6022 84.0428 13.5782C84.0682 13.5423 84.0626 13.5482 84.0261 13.596C83.9837 13.6522 83.9448 13.711 83.9098 13.7721C83.833 13.916 83.7636 14.0637 83.7017 14.2147C83.5738 14.5358 83.4121 14.8422 83.2194 15.1288C83.0306 15.4187 82.7554 15.6414 82.433 15.7651C82.1107 15.8888 81.7577 15.9072 81.4243 15.8177C81.2992 15.7677 81.1987 15.6704 81.1444 15.5467C81.0902 15.423 81.0866 15.2828 81.1344 15.1565C81.1855 15.0319 81.2827 14.9321 81.4055 14.8779C81.5283 14.8236 81.6673 14.8192 81.7933 14.8655Z" fill="#2F2E41"/>
</g>
<defs>
<clipPath id="clip0_1426_455">
<rect width="293" height="201" fill="white"/>
</clipPath>
</defs>
</svg>
