<svg width="300" height="204" viewBox="0 0 300 204" fill="none" xmlns="http://www.w3.org/2000/svg">
<g filter="url(#filter0_d_1426_448)">
<rect x="25" y="16" width="250" height="40" rx="8" fill="#3F3F3F" fill-opacity="0.51" shape-rendering="crispEdges"/>
<path d="M111.41 31.37V36.18H117.17V37.91H111.41V44H109.27V29.64H118.17V31.37H111.41ZM126.18 37.79C126.18 37.4033 126.123 37.0467 126.01 36.72C125.903 36.3933 125.743 36.11 125.53 35.87C125.316 35.63 125.056 35.4433 124.75 35.31C124.443 35.1767 124.09 35.11 123.69 35.11C122.87 35.11 122.223 35.3467 121.75 35.82C121.283 36.2933 120.986 36.95 120.86 37.79H126.18ZM127.79 42.55C127.55 42.83 127.273 43.0733 126.96 43.28C126.646 43.48 126.313 43.6433 125.96 43.77C125.606 43.8967 125.24 43.99 124.86 44.05C124.486 44.11 124.116 44.14 123.75 44.14C123.05 44.14 122.4 44.0233 121.8 43.79C121.206 43.55 120.69 43.2033 120.25 42.75C119.816 42.29 119.476 41.7233 119.23 41.05C118.99 40.37 118.87 39.59 118.87 38.71C118.87 38.0033 118.98 37.3467 119.2 36.74C119.42 36.1267 119.733 35.5933 120.14 35.14C120.553 34.6867 121.056 34.33 121.65 34.07C122.243 33.81 122.91 33.68 123.65 33.68C124.27 33.68 124.84 33.7833 125.36 33.99C125.886 34.19 126.34 34.4833 126.72 34.87C127.1 35.2567 127.396 35.7333 127.61 36.3C127.83 36.8667 127.94 37.5133 127.94 38.24C127.94 38.54 127.906 38.7433 127.84 38.85C127.773 38.95 127.65 39 127.47 39H120.81C120.83 39.6067 120.916 40.1367 121.07 40.59C121.223 41.0367 121.433 41.41 121.7 41.71C121.973 42.01 122.296 42.2333 122.67 42.38C123.043 42.5267 123.46 42.6 123.92 42.6C124.353 42.6 124.726 42.55 125.04 42.45C125.36 42.35 125.633 42.2433 125.86 42.13C126.093 42.01 126.286 41.9 126.44 41.8C126.6 41.7 126.74 41.65 126.86 41.65C127.02 41.65 127.143 41.71 127.23 41.83L127.79 42.55ZM136.916 37.79C136.916 37.4033 136.859 37.0467 136.746 36.72C136.639 36.3933 136.479 36.11 136.266 35.87C136.052 35.63 135.792 35.4433 135.486 35.31C135.179 35.1767 134.826 35.11 134.426 35.11C133.606 35.11 132.959 35.3467 132.486 35.82C132.019 36.2933 131.722 36.95 131.596 37.79H136.916ZM138.526 42.55C138.286 42.83 138.009 43.0733 137.696 43.28C137.382 43.48 137.049 43.6433 136.696 43.77C136.342 43.8967 135.976 43.99 135.596 44.05C135.222 44.11 134.852 44.14 134.486 44.14C133.786 44.14 133.136 44.0233 132.536 43.79C131.942 43.55 131.426 43.2033 130.986 42.75C130.552 42.29 130.212 41.7233 129.966 41.05C129.726 40.37 129.606 39.59 129.606 38.71C129.606 38.0033 129.716 37.3467 129.936 36.74C130.156 36.1267 130.469 35.5933 130.876 35.14C131.289 34.6867 131.792 34.33 132.386 34.07C132.979 33.81 133.646 33.68 134.386 33.68C135.006 33.68 135.576 33.7833 136.096 33.99C136.622 34.19 137.076 34.4833 137.456 34.87C137.836 35.2567 138.132 35.7333 138.346 36.3C138.566 36.8667 138.676 37.5133 138.676 38.24C138.676 38.54 138.642 38.7433 138.576 38.85C138.509 38.95 138.386 39 138.206 39H131.546C131.566 39.6067 131.652 40.1367 131.806 40.59C131.959 41.0367 132.169 41.41 132.436 41.71C132.709 42.01 133.032 42.2333 133.406 42.38C133.779 42.5267 134.196 42.6 134.656 42.6C135.089 42.6 135.462 42.55 135.776 42.45C136.096 42.35 136.369 42.2433 136.596 42.13C136.829 42.01 137.022 41.9 137.176 41.8C137.336 41.7 137.476 41.65 137.596 41.65C137.756 41.65 137.879 41.71 137.966 41.83L138.526 42.55ZM147.472 36.3C147.152 35.88 146.805 35.5867 146.432 35.42C146.065 35.2533 145.652 35.17 145.192 35.17C144.298 35.17 143.605 35.4933 143.112 36.14C142.625 36.78 142.382 37.7167 142.382 38.95C142.382 39.5967 142.435 40.15 142.542 40.61C142.655 41.0633 142.815 41.4367 143.022 41.73C143.235 42.0167 143.495 42.23 143.802 42.37C144.108 42.5033 144.455 42.57 144.842 42.57C145.408 42.57 145.898 42.4433 146.312 42.19C146.725 41.9367 147.112 41.58 147.472 41.12V36.3ZM149.432 29.24V44H148.252C147.978 44 147.808 43.87 147.742 43.61L147.572 42.44C147.138 42.9533 146.645 43.3667 146.092 43.68C145.545 43.9867 144.912 44.14 144.192 44.14C143.612 44.14 143.085 44.0267 142.612 43.8C142.145 43.5733 141.745 43.2433 141.412 42.81C141.078 42.37 140.822 41.8267 140.642 41.18C140.462 40.5333 140.372 39.79 140.372 38.95C140.372 38.1967 140.472 37.4967 140.672 36.85C140.872 36.2033 141.162 35.6433 141.542 35.17C141.922 34.6967 142.382 34.3267 142.922 34.06C143.462 33.7867 144.072 33.65 144.752 33.65C145.365 33.65 145.885 33.75 146.312 33.95C146.745 34.15 147.132 34.4333 147.472 34.8V29.24H149.432ZM154.252 41.5C154.572 41.92 154.919 42.2133 155.292 42.38C155.665 42.5467 156.072 42.63 156.512 42.63C157.419 42.63 158.115 42.3067 158.602 41.66C159.095 41.0133 159.342 40.0367 159.342 38.73C159.342 37.5233 159.125 36.64 158.692 36.08C158.259 35.5133 157.645 35.23 156.852 35.23C156.292 35.23 155.805 35.3567 155.392 35.61C154.985 35.8633 154.605 36.2233 154.252 36.69V41.5ZM154.252 35.24C154.672 34.7733 155.149 34.3967 155.682 34.11C156.215 33.8233 156.822 33.68 157.502 33.68C158.095 33.68 158.629 33.7967 159.102 34.03C159.582 34.2567 159.989 34.5867 160.322 35.02C160.655 35.4467 160.912 35.9667 161.092 36.58C161.272 37.1933 161.362 37.8867 161.362 38.66C161.362 39.48 161.259 40.2267 161.052 40.9C160.852 41.5733 160.562 42.15 160.182 42.63C159.809 43.11 159.352 43.4833 158.812 43.75C158.272 44.01 157.665 44.14 156.992 44.14C156.665 44.14 156.365 44.1067 156.092 44.04C155.819 43.98 155.565 43.89 155.332 43.77C155.105 43.65 154.895 43.5033 154.702 43.33C154.509 43.1567 154.325 42.96 154.152 42.74L154.062 43.59C154.009 43.8633 153.842 44 153.562 44H152.302V29.24H154.252V35.24ZM169.143 39.49C168.349 39.5167 167.676 39.58 167.123 39.68C166.569 39.7733 166.119 39.9 165.773 40.06C165.426 40.22 165.176 40.41 165.023 40.63C164.869 40.8433 164.793 41.0833 164.793 41.35C164.793 41.6033 164.833 41.8233 164.913 42.01C164.999 42.19 165.113 42.34 165.253 42.46C165.399 42.5733 165.569 42.6567 165.763 42.71C165.956 42.7633 166.166 42.79 166.393 42.79C166.693 42.79 166.966 42.76 167.213 42.7C167.466 42.64 167.703 42.5567 167.923 42.45C168.143 42.3367 168.353 42.2 168.553 42.04C168.753 41.88 168.949 41.6967 169.143 41.49V39.49ZM163.423 35.26C163.989 34.72 164.603 34.3167 165.263 34.05C165.929 33.7833 166.659 33.65 167.453 33.65C168.033 33.65 168.546 33.7467 168.993 33.94C169.439 34.1267 169.816 34.39 170.123 34.73C170.429 35.07 170.659 35.4767 170.813 35.95C170.973 36.4233 171.053 36.9467 171.053 37.52V44H170.183C169.989 44 169.843 43.97 169.743 43.91C169.643 43.8433 169.563 43.7233 169.503 43.55L169.293 42.66C169.033 42.9 168.776 43.1133 168.523 43.3C168.269 43.48 168.003 43.6367 167.723 43.77C167.449 43.8967 167.156 43.9933 166.843 44.06C166.529 44.1267 166.183 44.16 165.803 44.16C165.403 44.16 165.026 44.1067 164.673 44C164.326 43.8867 164.023 43.7167 163.763 43.49C163.503 43.2633 163.296 42.98 163.143 42.64C162.996 42.3 162.923 41.9033 162.923 41.45C162.923 41.05 163.029 40.6667 163.243 40.3C163.463 39.9267 163.816 39.5933 164.303 39.3C164.796 39.0067 165.436 38.7667 166.223 38.58C167.016 38.3933 167.989 38.2867 169.143 38.26V37.52C169.143 36.7533 168.979 36.18 168.653 35.8C168.326 35.42 167.846 35.23 167.213 35.23C166.786 35.23 166.426 35.2833 166.133 35.39C165.846 35.4967 165.596 35.6167 165.383 35.75C165.176 35.8767 164.993 35.9933 164.833 36.1C164.679 36.2067 164.519 36.26 164.353 36.26C164.219 36.26 164.103 36.2233 164.003 36.15C163.909 36.0767 163.833 35.99 163.773 35.89L163.423 35.26ZM180.933 35.74C180.873 35.8133 180.813 35.8733 180.753 35.92C180.7 35.96 180.62 35.98 180.513 35.98C180.406 35.98 180.293 35.94 180.173 35.86C180.06 35.7733 179.913 35.6833 179.733 35.59C179.56 35.49 179.346 35.4 179.093 35.32C178.846 35.2333 178.54 35.19 178.173 35.19C177.693 35.19 177.27 35.2767 176.903 35.45C176.536 35.6233 176.23 35.87 175.983 36.19C175.743 36.51 175.56 36.9 175.433 37.36C175.306 37.82 175.243 38.3367 175.243 38.91C175.243 39.5033 175.31 40.0333 175.443 40.5C175.576 40.96 175.766 41.35 176.013 41.67C176.26 41.9833 176.56 42.2233 176.913 42.39C177.266 42.55 177.66 42.63 178.093 42.63C178.513 42.63 178.86 42.58 179.133 42.48C179.406 42.3733 179.633 42.26 179.813 42.14C179.993 42.02 180.143 41.91 180.263 41.81C180.383 41.7033 180.506 41.65 180.633 41.65C180.793 41.65 180.916 41.71 181.003 41.83L181.563 42.55C181.33 42.8367 181.066 43.08 180.773 43.28C180.486 43.48 180.18 43.6433 179.853 43.77C179.526 43.8967 179.183 43.99 178.823 44.05C178.47 44.11 178.11 44.14 177.743 44.14C177.11 44.14 176.516 44.0233 175.963 43.79C175.416 43.5567 174.94 43.2167 174.533 42.77C174.133 42.3233 173.816 41.7767 173.583 41.13C173.35 40.4767 173.233 39.7367 173.233 38.91C173.233 38.1567 173.336 37.46 173.543 36.82C173.756 36.18 174.066 35.63 174.473 35.17C174.886 34.7033 175.393 34.34 175.993 34.08C176.593 33.8133 177.28 33.68 178.053 33.68C178.78 33.68 179.42 33.7967 179.973 34.03C180.526 34.2633 181.02 34.5933 181.453 35.02L180.933 35.74ZM185.483 29.24V37.87H185.943C186.083 37.87 186.2 37.85 186.293 37.81C186.387 37.77 186.483 37.69 186.583 37.57L189.623 34.22C189.717 34.0933 189.82 34 189.933 33.94C190.047 33.8733 190.19 33.84 190.363 33.84H192.143L188.553 37.77C188.36 38.0167 188.153 38.2067 187.933 38.34C188.06 38.4267 188.17 38.5267 188.263 38.64C188.363 38.7533 188.46 38.8767 188.553 39.01L192.373 44H190.623C190.463 44 190.323 43.9733 190.203 43.92C190.09 43.8667 189.987 43.77 189.893 43.63L186.753 39.55C186.653 39.3967 186.553 39.3 186.453 39.26C186.353 39.2133 186.203 39.19 186.003 39.19H185.483V44H183.533V29.24H185.483Z" fill="white"/>
</g>
<g filter="url(#filter1_d_1426_448)">
<rect x="25" y="60" width="250" height="40" rx="8" fill="#3F3F3F" fill-opacity="0.51" shape-rendering="crispEdges"/>
<path d="M99.41 75.37V80.18H105.17V81.91H99.41V88H97.27V73.64H106.17V75.37H99.41ZM114.18 81.79C114.18 81.4033 114.123 81.0467 114.01 80.72C113.903 80.3933 113.743 80.11 113.53 79.87C113.316 79.63 113.056 79.4433 112.75 79.31C112.443 79.1767 112.09 79.11 111.69 79.11C110.87 79.11 110.223 79.3467 109.75 79.82C109.283 80.2933 108.986 80.95 108.86 81.79H114.18ZM115.79 86.55C115.55 86.83 115.273 87.0733 114.96 87.28C114.646 87.48 114.313 87.6433 113.96 87.77C113.606 87.8967 113.24 87.99 112.86 88.05C112.486 88.11 112.116 88.14 111.75 88.14C111.05 88.14 110.4 88.0233 109.8 87.79C109.206 87.55 108.69 87.2033 108.25 86.75C107.816 86.29 107.476 85.7233 107.23 85.05C106.99 84.37 106.87 83.59 106.87 82.71C106.87 82.0033 106.98 81.3467 107.2 80.74C107.42 80.1267 107.733 79.5933 108.14 79.14C108.553 78.6867 109.056 78.33 109.65 78.07C110.243 77.81 110.91 77.68 111.65 77.68C112.27 77.68 112.84 77.7833 113.36 77.99C113.886 78.19 114.34 78.4833 114.72 78.87C115.1 79.2567 115.396 79.7333 115.61 80.3C115.83 80.8667 115.94 81.5133 115.94 82.24C115.94 82.54 115.906 82.7433 115.84 82.85C115.773 82.95 115.65 83 115.47 83H108.81C108.83 83.6067 108.916 84.1367 109.07 84.59C109.223 85.0367 109.433 85.41 109.7 85.71C109.973 86.01 110.296 86.2333 110.67 86.38C111.043 86.5267 111.46 86.6 111.92 86.6C112.353 86.6 112.726 86.55 113.04 86.45C113.36 86.35 113.633 86.2433 113.86 86.13C114.093 86.01 114.286 85.9 114.44 85.8C114.6 85.7 114.74 85.65 114.86 85.65C115.02 85.65 115.143 85.71 115.23 85.83L115.79 86.55ZM120.136 79.13C120.562 78.6967 121.032 78.3467 121.546 78.08C122.066 77.8133 122.662 77.68 123.336 77.68C123.896 77.68 124.386 77.7733 124.806 77.96C125.232 78.1467 125.589 78.41 125.876 78.75C126.162 79.0833 126.379 79.4867 126.526 79.96C126.672 80.4333 126.746 80.9567 126.746 81.53V88H124.786V81.53C124.786 80.8033 124.619 80.24 124.286 79.84C123.952 79.4333 123.442 79.23 122.756 79.23C122.256 79.23 121.786 79.35 121.346 79.59C120.912 79.8233 120.509 80.1433 120.136 80.55V88H118.186V73.24H120.136V79.13ZM131.527 73.24V88H129.567V73.24H131.527ZM141.192 81.79C141.192 81.4033 141.136 81.0467 141.022 80.72C140.916 80.3933 140.756 80.11 140.542 79.87C140.329 79.63 140.069 79.4433 139.762 79.31C139.456 79.1767 139.102 79.11 138.702 79.11C137.882 79.11 137.236 79.3467 136.762 79.82C136.296 80.2933 135.999 80.95 135.872 81.79H141.192ZM142.802 86.55C142.562 86.83 142.286 87.0733 141.972 87.28C141.659 87.48 141.326 87.6433 140.972 87.77C140.619 87.8967 140.252 87.99 139.872 88.05C139.499 88.11 139.129 88.14 138.762 88.14C138.062 88.14 137.412 88.0233 136.812 87.79C136.219 87.55 135.702 87.2033 135.262 86.75C134.829 86.29 134.489 85.7233 134.242 85.05C134.002 84.37 133.882 83.59 133.882 82.71C133.882 82.0033 133.992 81.3467 134.212 80.74C134.432 80.1267 134.746 79.5933 135.152 79.14C135.566 78.6867 136.069 78.33 136.662 78.07C137.256 77.81 137.922 77.68 138.662 77.68C139.282 77.68 139.852 77.7833 140.372 77.99C140.899 78.19 141.352 78.4833 141.732 78.87C142.112 79.2567 142.409 79.7333 142.622 80.3C142.842 80.8667 142.952 81.5133 142.952 82.24C142.952 82.54 142.919 82.7433 142.852 82.85C142.786 82.95 142.662 83 142.482 83H135.822C135.842 83.6067 135.929 84.1367 136.082 84.59C136.236 85.0367 136.446 85.41 136.712 85.71C136.986 86.01 137.309 86.2333 137.682 86.38C138.056 86.5267 138.472 86.6 138.932 86.6C139.366 86.6 139.739 86.55 140.052 86.45C140.372 86.35 140.646 86.2433 140.872 86.13C141.106 86.01 141.299 85.9 141.452 85.8C141.612 85.7 141.752 85.65 141.872 85.65C142.032 85.65 142.156 85.71 142.242 85.83L142.802 86.55ZM147.038 79.79C147.365 79.1233 147.758 78.6 148.218 78.22C148.678 77.84 149.231 77.65 149.878 77.65C150.098 77.65 150.305 77.6767 150.498 77.73C150.698 77.7767 150.871 77.85 151.018 77.95L150.888 79.42C150.841 79.6 150.731 79.69 150.558 79.69C150.465 79.69 150.325 79.6733 150.138 79.64C149.951 79.6 149.751 79.58 149.538 79.58C149.225 79.58 148.948 79.6267 148.708 79.72C148.468 79.8067 148.251 79.94 148.058 80.12C147.871 80.2933 147.705 80.51 147.558 80.77C147.411 81.0233 147.275 81.3133 147.148 81.64V88H145.198V77.84H146.318C146.531 77.84 146.675 77.88 146.748 77.96C146.828 78.0333 146.885 78.1667 146.918 78.36L147.038 79.79ZM154.622 73.24V81.87H155.082C155.222 81.87 155.339 81.85 155.432 81.81C155.526 81.77 155.622 81.69 155.722 81.57L158.762 78.22C158.856 78.0933 158.959 78 159.072 77.94C159.186 77.8733 159.329 77.84 159.502 77.84H161.282L157.692 81.77C157.499 82.0167 157.292 82.2067 157.072 82.34C157.199 82.4267 157.309 82.5267 157.402 82.64C157.502 82.7533 157.599 82.8767 157.692 83.01L161.512 88H159.762C159.602 88 159.462 87.9733 159.342 87.92C159.229 87.8667 159.126 87.77 159.032 87.63L155.892 83.55C155.792 83.3967 155.692 83.3 155.592 83.26C155.492 83.2133 155.342 83.19 155.142 83.19H154.622V88H152.672V73.24H154.622ZM171.565 77.84V88H170.395C170.129 88 169.955 87.87 169.875 87.61L169.735 86.59C169.515 86.8233 169.285 87.0367 169.045 87.23C168.805 87.4233 168.549 87.59 168.275 87.73C168.002 87.8633 167.712 87.9667 167.405 88.04C167.099 88.12 166.769 88.16 166.415 88.16C165.855 88.16 165.362 88.0667 164.935 87.88C164.515 87.6933 164.162 87.4333 163.875 87.1C163.589 86.76 163.372 86.3533 163.225 85.88C163.079 85.4067 163.005 84.8833 163.005 84.31V77.84H164.965V84.31C164.965 85.0367 165.132 85.6033 165.465 86.01C165.799 86.41 166.309 86.61 166.995 86.61C167.495 86.61 167.962 86.4933 168.395 86.26C168.829 86.02 169.235 85.6933 169.615 85.28V77.84H171.565ZM176.437 73.24V88H174.477V73.24H176.437ZM182.552 88.16C181.732 88.16 181.099 87.93 180.652 87.47C180.212 87.01 179.992 86.3533 179.992 85.5V79.42H178.812C178.699 79.42 178.602 79.3867 178.522 79.32C178.449 79.2467 178.412 79.14 178.412 79V78.21L180.062 77.98L180.502 74.95C180.529 74.8367 180.579 74.75 180.652 74.69C180.732 74.6233 180.832 74.59 180.952 74.59H181.942V78H184.822V79.42H181.942V85.37C181.942 85.77 182.039 86.07 182.232 86.27C182.432 86.4633 182.686 86.56 182.992 86.56C183.172 86.56 183.326 86.5367 183.452 86.49C183.586 86.4433 183.699 86.3933 183.792 86.34C183.886 86.28 183.966 86.2267 184.032 86.18C184.099 86.1333 184.159 86.11 184.212 86.11C184.279 86.11 184.329 86.1267 184.362 86.16C184.402 86.1867 184.442 86.2333 184.482 86.3L185.062 87.24C184.742 87.5333 184.362 87.76 183.922 87.92C183.482 88.08 183.026 88.16 182.552 88.16ZM195.218 77.84V88H194.048C193.782 88 193.608 87.87 193.528 87.61L193.388 86.59C193.168 86.8233 192.938 87.0367 192.698 87.23C192.458 87.4233 192.202 87.59 191.928 87.73C191.655 87.8633 191.365 87.9667 191.058 88.04C190.752 88.12 190.422 88.16 190.068 88.16C189.508 88.16 189.015 88.0667 188.588 87.88C188.168 87.6933 187.815 87.4333 187.528 87.1C187.242 86.76 187.025 86.3533 186.878 85.88C186.732 85.4067 186.658 84.8833 186.658 84.31V77.84H188.618V84.31C188.618 85.0367 188.785 85.6033 189.118 86.01C189.452 86.41 189.962 86.61 190.648 86.61C191.148 86.61 191.615 86.4933 192.048 86.26C192.482 86.02 192.888 85.6933 193.268 85.28V77.84H195.218ZM199.93 79.79C200.257 79.1233 200.65 78.6 201.11 78.22C201.57 77.84 202.124 77.65 202.77 77.65C202.99 77.65 203.197 77.6767 203.39 77.73C203.59 77.7767 203.764 77.85 203.91 77.95L203.78 79.42C203.734 79.6 203.624 79.69 203.45 79.69C203.357 79.69 203.217 79.6733 203.03 79.64C202.844 79.6 202.644 79.58 202.43 79.58C202.117 79.58 201.84 79.6267 201.6 79.72C201.36 79.8067 201.144 79.94 200.95 80.12C200.764 80.2933 200.597 80.51 200.45 80.77C200.304 81.0233 200.167 81.3133 200.04 81.64V88H198.09V77.84H199.21C199.424 77.84 199.567 77.88 199.64 77.96C199.72 78.0333 199.777 78.1667 199.81 78.36L199.93 79.79Z" fill="white"/>
</g>
<g filter="url(#filter2_d_1426_448)">
<rect x="25" y="104" width="250" height="40" rx="8" fill="#3F3F3F" fill-opacity="0.51" shape-rendering="crispEdges"/>
<path d="M94.34 124.56C94.8867 124.56 95.3667 124.493 95.78 124.36C96.2 124.227 96.55 124.04 96.83 123.8C97.11 123.553 97.32 123.263 97.46 122.93C97.6 122.59 97.67 122.217 97.67 121.81C97.67 120.983 97.3967 120.36 96.85 119.94C96.31 119.52 95.4967 119.31 94.41 119.31H92.4V124.56H94.34ZM101.04 132H99.14C98.76 132 98.4833 131.85 98.31 131.55L94.76 126.57C94.6467 126.403 94.5233 126.287 94.39 126.22C94.2567 126.147 94.0567 126.11 93.79 126.11H92.4V132H90.27V117.64H94.41C95.3367 117.64 96.1333 117.737 96.8 117.93C97.4733 118.117 98.0267 118.387 98.46 118.74C98.9 119.087 99.2233 119.507 99.43 120C99.6433 120.493 99.75 121.047 99.75 121.66C99.75 122.16 99.6733 122.63 99.52 123.07C99.3667 123.51 99.14 123.907 98.84 124.26C98.5467 124.607 98.1867 124.907 97.76 125.16C97.3333 125.413 96.85 125.607 96.31 125.74C96.5767 125.9 96.8067 126.123 97 126.41L101.04 132ZM106.303 121.68C107.05 121.68 107.723 121.803 108.323 122.05C108.93 122.29 109.443 122.64 109.863 123.1C110.29 123.553 110.616 124.103 110.843 124.75C111.07 125.39 111.183 126.11 111.183 126.91C111.183 127.71 111.07 128.433 110.843 129.08C110.616 129.727 110.29 130.277 109.863 130.73C109.443 131.183 108.93 131.533 108.323 131.78C107.723 132.02 107.05 132.14 106.303 132.14C105.55 132.14 104.87 132.02 104.263 131.78C103.663 131.533 103.15 131.183 102.723 130.73C102.296 130.277 101.966 129.727 101.733 129.08C101.506 128.433 101.393 127.71 101.393 126.91C101.393 126.11 101.506 125.39 101.733 124.75C101.966 124.103 102.296 123.553 102.723 123.1C103.15 122.64 103.663 122.29 104.263 122.05C104.87 121.803 105.55 121.68 106.303 121.68ZM106.303 130.62C107.263 130.62 107.98 130.297 108.453 129.65C108.926 129.003 109.163 128.093 109.163 126.92C109.163 125.747 108.926 124.837 108.453 124.19C107.98 123.537 107.263 123.21 106.303 123.21C105.33 123.21 104.603 123.537 104.123 124.19C103.65 124.837 103.413 125.747 103.413 126.92C103.413 128.093 103.65 129.003 104.123 129.65C104.603 130.297 105.33 130.62 106.303 130.62ZM115.51 117.24V132H113.55V117.24H115.51ZM120.445 117.24V132H118.485V117.24H120.445ZM130.11 125.79C130.11 125.403 130.053 125.047 129.94 124.72C129.833 124.393 129.673 124.11 129.46 123.87C129.247 123.63 128.987 123.443 128.68 123.31C128.373 123.177 128.02 123.11 127.62 123.11C126.8 123.11 126.153 123.347 125.68 123.82C125.213 124.293 124.917 124.95 124.79 125.79H130.11ZM131.72 130.55C131.48 130.83 131.203 131.073 130.89 131.28C130.577 131.48 130.243 131.643 129.89 131.77C129.537 131.897 129.17 131.99 128.79 132.05C128.417 132.11 128.047 132.14 127.68 132.14C126.98 132.14 126.33 132.023 125.73 131.79C125.137 131.55 124.62 131.203 124.18 130.75C123.747 130.29 123.407 129.723 123.16 129.05C122.92 128.37 122.8 127.59 122.8 126.71C122.8 126.003 122.91 125.347 123.13 124.74C123.35 124.127 123.663 123.593 124.07 123.14C124.483 122.687 124.987 122.33 125.58 122.07C126.173 121.81 126.84 121.68 127.58 121.68C128.2 121.68 128.77 121.783 129.29 121.99C129.817 122.19 130.27 122.483 130.65 122.87C131.03 123.257 131.327 123.733 131.54 124.3C131.76 124.867 131.87 125.513 131.87 126.24C131.87 126.54 131.837 126.743 131.77 126.85C131.703 126.95 131.58 127 131.4 127H124.74C124.76 127.607 124.847 128.137 125 128.59C125.153 129.037 125.363 129.41 125.63 129.71C125.903 130.01 126.227 130.233 126.6 130.38C126.973 130.527 127.39 130.6 127.85 130.6C128.283 130.6 128.657 130.55 128.97 130.45C129.29 130.35 129.563 130.243 129.79 130.13C130.023 130.01 130.217 129.9 130.37 129.8C130.53 129.7 130.67 129.65 130.79 129.65C130.95 129.65 131.073 129.71 131.16 129.83L131.72 130.55ZM135.946 123.25C136.166 123.017 136.396 122.803 136.636 122.61C136.876 122.417 137.129 122.253 137.396 122.12C137.669 121.98 137.959 121.873 138.266 121.8C138.579 121.72 138.913 121.68 139.266 121.68C139.826 121.68 140.316 121.773 140.736 121.96C141.163 122.147 141.519 122.41 141.806 122.75C142.093 123.083 142.309 123.487 142.456 123.96C142.603 124.433 142.676 124.957 142.676 125.53V132H140.716V125.53C140.716 124.803 140.549 124.24 140.216 123.84C139.883 123.433 139.373 123.23 138.686 123.23C138.186 123.23 137.716 123.35 137.276 123.59C136.843 123.823 136.439 124.143 136.066 124.55V132H134.116V121.84H135.286C135.559 121.84 135.729 121.97 135.796 122.23L135.946 123.25ZM147.408 117.24V125.87H147.868C148.008 125.87 148.124 125.85 148.218 125.81C148.311 125.77 148.408 125.69 148.508 125.57L151.548 122.22C151.641 122.093 151.744 122 151.858 121.94C151.971 121.873 152.114 121.84 152.288 121.84H154.068L150.478 125.77C150.284 126.017 150.078 126.207 149.858 126.34C149.984 126.427 150.094 126.527 150.188 126.64C150.288 126.753 150.384 126.877 150.478 127.01L154.298 132H152.548C152.388 132 152.248 131.973 152.128 131.92C152.014 131.867 151.911 131.77 151.818 131.63L148.678 127.55C148.578 127.397 148.478 127.3 148.378 127.26C148.278 127.213 148.128 127.19 147.928 127.19H147.408V132H145.458V117.24H147.408ZM157.9 117.24V132H155.94V117.24H157.9ZM166.296 127.49C165.502 127.517 164.829 127.58 164.276 127.68C163.722 127.773 163.272 127.9 162.926 128.06C162.579 128.22 162.329 128.41 162.176 128.63C162.022 128.843 161.946 129.083 161.946 129.35C161.946 129.603 161.986 129.823 162.066 130.01C162.152 130.19 162.266 130.34 162.406 130.46C162.552 130.573 162.722 130.657 162.916 130.71C163.109 130.763 163.319 130.79 163.546 130.79C163.846 130.79 164.119 130.76 164.366 130.7C164.619 130.64 164.856 130.557 165.076 130.45C165.296 130.337 165.506 130.2 165.706 130.04C165.906 129.88 166.102 129.697 166.296 129.49V127.49ZM160.576 123.26C161.142 122.72 161.756 122.317 162.416 122.05C163.082 121.783 163.812 121.65 164.606 121.65C165.186 121.65 165.699 121.747 166.146 121.94C166.592 122.127 166.969 122.39 167.276 122.73C167.582 123.07 167.812 123.477 167.966 123.95C168.126 124.423 168.206 124.947 168.206 125.52V132H167.336C167.142 132 166.996 131.97 166.896 131.91C166.796 131.843 166.716 131.723 166.656 131.55L166.446 130.66C166.186 130.9 165.929 131.113 165.676 131.3C165.422 131.48 165.156 131.637 164.876 131.77C164.602 131.897 164.309 131.993 163.996 132.06C163.682 132.127 163.336 132.16 162.956 132.16C162.556 132.16 162.179 132.107 161.826 132C161.479 131.887 161.176 131.717 160.916 131.49C160.656 131.263 160.449 130.98 160.296 130.64C160.149 130.3 160.076 129.903 160.076 129.45C160.076 129.05 160.182 128.667 160.396 128.3C160.616 127.927 160.969 127.593 161.456 127.3C161.949 127.007 162.589 126.767 163.376 126.58C164.169 126.393 165.142 126.287 166.296 126.26V125.52C166.296 124.753 166.132 124.18 165.806 123.8C165.479 123.42 164.999 123.23 164.366 123.23C163.939 123.23 163.579 123.283 163.286 123.39C162.999 123.497 162.749 123.617 162.536 123.75C162.329 123.877 162.146 123.993 161.986 124.1C161.832 124.207 161.672 124.26 161.506 124.26C161.372 124.26 161.256 124.223 161.156 124.15C161.062 124.077 160.986 123.99 160.926 123.89L160.576 123.26ZM172.806 123.79C173.133 123.123 173.526 122.6 173.986 122.22C174.446 121.84 174.999 121.65 175.646 121.65C175.866 121.65 176.073 121.677 176.266 121.73C176.466 121.777 176.639 121.85 176.786 121.95L176.656 123.42C176.609 123.6 176.499 123.69 176.326 123.69C176.233 123.69 176.093 123.673 175.906 123.64C175.719 123.6 175.519 123.58 175.306 123.58C174.993 123.58 174.716 123.627 174.476 123.72C174.236 123.807 174.019 123.94 173.826 124.12C173.639 124.293 173.473 124.51 173.326 124.77C173.179 125.023 173.043 125.313 172.916 125.64V132H170.966V121.84H172.086C172.299 121.84 172.443 121.88 172.516 121.96C172.596 122.033 172.653 122.167 172.686 122.36L172.806 123.79ZM180.39 123.13C180.817 122.697 181.287 122.347 181.8 122.08C182.32 121.813 182.917 121.68 183.59 121.68C184.15 121.68 184.64 121.773 185.06 121.96C185.487 122.147 185.844 122.41 186.13 122.75C186.417 123.083 186.634 123.487 186.78 123.96C186.927 124.433 187 124.957 187 125.53V132H185.04V125.53C185.04 124.803 184.874 124.24 184.54 123.84C184.207 123.433 183.697 123.23 183.01 123.23C182.51 123.23 182.04 123.35 181.6 123.59C181.167 123.823 180.764 124.143 180.39 124.55V132H178.44V117.24H180.39V123.13ZM196.512 125.79C196.512 125.403 196.455 125.047 196.342 124.72C196.235 124.393 196.075 124.11 195.862 123.87C195.648 123.63 195.388 123.443 195.082 123.31C194.775 123.177 194.422 123.11 194.022 123.11C193.202 123.11 192.555 123.347 192.082 123.82C191.615 124.293 191.318 124.95 191.192 125.79H196.512ZM198.122 130.55C197.882 130.83 197.605 131.073 197.292 131.28C196.978 131.48 196.645 131.643 196.292 131.77C195.938 131.897 195.572 131.99 195.192 132.05C194.818 132.11 194.448 132.14 194.082 132.14C193.382 132.14 192.732 132.023 192.132 131.79C191.538 131.55 191.022 131.203 190.582 130.75C190.148 130.29 189.808 129.723 189.562 129.05C189.322 128.37 189.202 127.59 189.202 126.71C189.202 126.003 189.312 125.347 189.532 124.74C189.752 124.127 190.065 123.593 190.472 123.14C190.885 122.687 191.388 122.33 191.982 122.07C192.575 121.81 193.242 121.68 193.982 121.68C194.602 121.68 195.172 121.783 195.692 121.99C196.218 122.19 196.672 122.483 197.052 122.87C197.432 123.257 197.728 123.733 197.942 124.3C198.162 124.867 198.272 125.513 198.272 126.24C198.272 126.54 198.238 126.743 198.172 126.85C198.105 126.95 197.982 127 197.802 127H191.142C191.162 127.607 191.248 128.137 191.402 128.59C191.555 129.037 191.765 129.41 192.032 129.71C192.305 130.01 192.628 130.233 193.002 130.38C193.375 130.527 193.792 130.6 194.252 130.6C194.685 130.6 195.058 130.55 195.372 130.45C195.692 130.35 195.965 130.243 196.192 130.13C196.425 130.01 196.618 129.9 196.772 129.8C196.932 129.7 197.072 129.65 197.192 129.65C197.352 129.65 197.475 129.71 197.562 129.83L198.122 130.55ZM202.558 121.84V132H200.608V121.84H202.558ZM202.928 118.7C202.928 118.88 202.891 119.053 202.818 119.22C202.744 119.38 202.644 119.523 202.518 119.65C202.398 119.77 202.254 119.867 202.088 119.94C201.921 120.007 201.748 120.04 201.568 120.04C201.388 120.04 201.218 120.007 201.058 119.94C200.898 119.867 200.754 119.77 200.628 119.65C200.508 119.523 200.411 119.38 200.338 119.22C200.271 119.053 200.238 118.88 200.238 118.7C200.238 118.513 200.271 118.34 200.338 118.18C200.411 118.013 200.508 117.87 200.628 117.75C200.754 117.623 200.898 117.527 201.058 117.46C201.218 117.387 201.388 117.35 201.568 117.35C201.748 117.35 201.921 117.387 202.088 117.46C202.254 117.527 202.398 117.623 202.518 117.75C202.644 117.87 202.744 118.013 202.818 118.18C202.891 118.34 202.928 118.513 202.928 118.7ZM208.711 132.16C207.891 132.16 207.258 131.93 206.811 131.47C206.371 131.01 206.151 130.353 206.151 129.5V123.42H204.971C204.858 123.42 204.761 123.387 204.681 123.32C204.608 123.247 204.571 123.14 204.571 123V122.21L206.221 121.98L206.661 118.95C206.688 118.837 206.738 118.75 206.811 118.69C206.891 118.623 206.991 118.59 207.111 118.59H208.101V122H210.981V123.42H208.101V129.37C208.101 129.77 208.198 130.07 208.391 130.27C208.591 130.463 208.844 130.56 209.151 130.56C209.331 130.56 209.484 130.537 209.611 130.49C209.744 130.443 209.858 130.393 209.951 130.34C210.044 130.28 210.124 130.227 210.191 130.18C210.258 130.133 210.318 130.11 210.371 130.11C210.438 130.11 210.488 130.127 210.521 130.16C210.561 130.187 210.601 130.233 210.641 130.3L211.221 131.24C210.901 131.533 210.521 131.76 210.081 131.92C209.641 132.08 209.184 132.16 208.711 132.16Z" fill="white"/>
</g>
<g filter="url(#filter3_d_1426_448)">
<rect x="25" y="148" width="250" height="40" rx="8" fill="#3F3F3F" fill-opacity="0.51" shape-rendering="crispEdges"/>
<path d="M62.18 174.27L62.17 176H53.27V161.64H62.17V163.37H55.41V167.92H60.85V169.59H55.41V174.27H62.18ZM66.1391 167.25C66.3591 167.017 66.5891 166.803 66.8291 166.61C67.0691 166.417 67.3224 166.253 67.5891 166.12C67.8624 165.98 68.1524 165.873 68.4591 165.8C68.7724 165.72 69.1057 165.68 69.4591 165.68C70.0191 165.68 70.5091 165.773 70.9291 165.96C71.3557 166.147 71.7124 166.41 71.9991 166.75C72.2857 167.083 72.5024 167.487 72.6491 167.96C72.7957 168.433 72.8691 168.957 72.8691 169.53V176H70.9091V169.53C70.9091 168.803 70.7424 168.24 70.4091 167.84C70.0757 167.433 69.5657 167.23 68.8791 167.23C68.3791 167.23 67.9091 167.35 67.4691 167.59C67.0357 167.823 66.6324 168.143 66.2591 168.55V176H64.3091V165.84H65.4791C65.7524 165.84 65.9224 165.97 65.9891 166.23L66.1391 167.25ZM78.6937 176.16C77.8737 176.16 77.2404 175.93 76.7937 175.47C76.3537 175.01 76.1337 174.353 76.1337 173.5V167.42H74.9537C74.8404 167.42 74.7437 167.387 74.6637 167.32C74.5904 167.247 74.5537 167.14 74.5537 167V166.21L76.2037 165.98L76.6437 162.95C76.6704 162.837 76.7204 162.75 76.7937 162.69C76.8737 162.623 76.9737 162.59 77.0937 162.59H78.0837V166H80.9637V167.42H78.0837V173.37C78.0837 173.77 78.1804 174.07 78.3737 174.27C78.5737 174.463 78.8271 174.56 79.1337 174.56C79.3137 174.56 79.4671 174.537 79.5937 174.49C79.7271 174.443 79.8404 174.393 79.9337 174.34C80.0271 174.28 80.1071 174.227 80.1737 174.18C80.2404 174.133 80.3004 174.11 80.3537 174.11C80.4204 174.11 80.4704 174.127 80.5037 174.16C80.5437 174.187 80.5837 174.233 80.6237 174.3L81.2037 175.24C80.8837 175.533 80.5037 175.76 80.0637 175.92C79.6237 176.08 79.1671 176.16 78.6937 176.16ZM88.8998 167.59C88.8465 167.677 88.7898 167.74 88.7298 167.78C88.6698 167.813 88.5932 167.83 88.4998 167.83C88.3932 167.83 88.2732 167.793 88.1398 167.72C88.0132 167.647 87.8565 167.567 87.6698 167.48C87.4898 167.393 87.2765 167.313 87.0298 167.24C86.7832 167.167 86.4898 167.13 86.1498 167.13C85.8698 167.13 85.6132 167.167 85.3798 167.24C85.1532 167.307 84.9598 167.403 84.7998 167.53C84.6398 167.65 84.5165 167.797 84.4298 167.97C84.3432 168.137 84.2998 168.317 84.2998 168.51C84.2998 168.763 84.3732 168.973 84.5198 169.14C84.6732 169.307 84.8698 169.45 85.1098 169.57C85.3565 169.69 85.6332 169.8 85.9398 169.9C86.2532 169.993 86.5698 170.093 86.8898 170.2C87.2165 170.307 87.5332 170.43 87.8398 170.57C88.1532 170.703 88.4298 170.873 88.6698 171.08C88.9165 171.28 89.1132 171.523 89.2598 171.81C89.4132 172.097 89.4898 172.447 89.4898 172.86C89.4898 173.333 89.4032 173.773 89.2298 174.18C89.0632 174.58 88.8132 174.927 88.4798 175.22C88.1532 175.513 87.7465 175.743 87.2598 175.91C86.7732 176.077 86.2165 176.16 85.5898 176.16C84.8898 176.16 84.2432 176.043 83.6498 175.81C83.0565 175.577 82.5598 175.28 82.1598 174.92L82.6198 174.17C82.6732 174.077 82.7398 174.007 82.8198 173.96C82.8998 173.907 83.0065 173.88 83.1398 173.88C83.2665 173.88 83.3965 173.927 83.5298 174.02C83.6632 174.113 83.8232 174.217 84.0098 174.33C84.1965 174.437 84.4232 174.537 84.6898 174.63C84.9565 174.717 85.2898 174.76 85.6898 174.76C86.0232 174.76 86.3132 174.72 86.5598 174.64C86.8065 174.553 87.0098 174.44 87.1698 174.3C87.3365 174.153 87.4598 173.987 87.5398 173.8C87.6198 173.613 87.6598 173.417 87.6598 173.21C87.6598 172.943 87.5832 172.723 87.4298 172.55C87.2832 172.37 87.0865 172.217 86.8398 172.09C86.5998 171.963 86.3232 171.853 86.0098 171.76C85.6965 171.667 85.3765 171.567 85.0498 171.46C84.7232 171.353 84.4032 171.23 84.0898 171.09C83.7765 170.95 83.4965 170.773 83.2498 170.56C83.0098 170.347 82.8132 170.087 82.6598 169.78C82.5132 169.473 82.4398 169.1 82.4398 168.66C82.4398 168.267 82.5198 167.89 82.6798 167.53C82.8465 167.17 83.0832 166.853 83.3898 166.58C83.7032 166.307 84.0865 166.09 84.5398 165.93C84.9998 165.763 85.5232 165.68 86.1098 165.68C86.7832 165.68 87.3898 165.787 87.9298 166C88.4765 166.213 88.9432 166.507 89.3298 166.88L88.8998 167.59ZM98.8712 167.74C98.8112 167.813 98.7512 167.873 98.6912 167.92C98.6379 167.96 98.5579 167.98 98.4512 167.98C98.3446 167.98 98.2312 167.94 98.1112 167.86C97.9979 167.773 97.8512 167.683 97.6712 167.59C97.4979 167.49 97.2846 167.4 97.0312 167.32C96.7846 167.233 96.4779 167.19 96.1112 167.19C95.6312 167.19 95.2079 167.277 94.8412 167.45C94.4746 167.623 94.1679 167.87 93.9212 168.19C93.6812 168.51 93.4979 168.9 93.3712 169.36C93.2446 169.82 93.1812 170.337 93.1812 170.91C93.1812 171.503 93.2479 172.033 93.3812 172.5C93.5146 172.96 93.7046 173.35 93.9512 173.67C94.1979 173.983 94.4979 174.223 94.8512 174.39C95.2046 174.55 95.5979 174.63 96.0312 174.63C96.4512 174.63 96.7979 174.58 97.0712 174.48C97.3446 174.373 97.5712 174.26 97.7512 174.14C97.9312 174.02 98.0812 173.91 98.2012 173.81C98.3212 173.703 98.4446 173.65 98.5712 173.65C98.7312 173.65 98.8546 173.71 98.9412 173.83L99.5012 174.55C99.2679 174.837 99.0046 175.08 98.7112 175.28C98.4246 175.48 98.1179 175.643 97.7912 175.77C97.4646 175.897 97.1212 175.99 96.7612 176.05C96.4079 176.11 96.0479 176.14 95.6812 176.14C95.0479 176.14 94.4546 176.023 93.9012 175.79C93.3546 175.557 92.8779 175.217 92.4712 174.77C92.0712 174.323 91.7546 173.777 91.5212 173.13C91.2879 172.477 91.1712 171.737 91.1712 170.91C91.1712 170.157 91.2746 169.46 91.4812 168.82C91.6946 168.18 92.0046 167.63 92.4112 167.17C92.8246 166.703 93.3312 166.34 93.9312 166.08C94.5312 165.813 95.2179 165.68 95.9912 165.68C96.7179 165.68 97.3579 165.797 97.9112 166.03C98.4646 166.263 98.9579 166.593 99.3912 167.02L98.8712 167.74ZM103.422 167.13C103.848 166.697 104.318 166.347 104.832 166.08C105.352 165.813 105.948 165.68 106.622 165.68C107.182 165.68 107.672 165.773 108.092 165.96C108.518 166.147 108.875 166.41 109.162 166.75C109.448 167.083 109.665 167.487 109.812 167.96C109.958 168.433 110.032 168.957 110.032 169.53V176H108.072V169.53C108.072 168.803 107.905 168.24 107.572 167.84C107.238 167.433 106.728 167.23 106.042 167.23C105.542 167.23 105.072 167.35 104.632 167.59C104.198 167.823 103.795 168.143 103.422 168.55V176H101.472V161.24H103.422V167.13ZM119.543 169.79C119.543 169.403 119.486 169.047 119.373 168.72C119.266 168.393 119.106 168.11 118.893 167.87C118.68 167.63 118.42 167.443 118.113 167.31C117.806 167.177 117.453 167.11 117.053 167.11C116.233 167.11 115.586 167.347 115.113 167.82C114.646 168.293 114.35 168.95 114.223 169.79H119.543ZM121.153 174.55C120.913 174.83 120.636 175.073 120.323 175.28C120.01 175.48 119.676 175.643 119.323 175.77C118.97 175.897 118.603 175.99 118.223 176.05C117.85 176.11 117.48 176.14 117.113 176.14C116.413 176.14 115.763 176.023 115.163 175.79C114.57 175.55 114.053 175.203 113.613 174.75C113.18 174.29 112.84 173.723 112.593 173.05C112.353 172.37 112.233 171.59 112.233 170.71C112.233 170.003 112.343 169.347 112.563 168.74C112.783 168.127 113.096 167.593 113.503 167.14C113.916 166.687 114.42 166.33 115.013 166.07C115.606 165.81 116.273 165.68 117.013 165.68C117.633 165.68 118.203 165.783 118.723 165.99C119.25 166.19 119.703 166.483 120.083 166.87C120.463 167.257 120.76 167.733 120.973 168.3C121.193 168.867 121.303 169.513 121.303 170.24C121.303 170.54 121.27 170.743 121.203 170.85C121.136 170.95 121.013 171 120.833 171H114.173C114.193 171.607 114.28 172.137 114.433 172.59C114.586 173.037 114.796 173.41 115.063 173.71C115.336 174.01 115.66 174.233 116.033 174.38C116.406 174.527 116.823 174.6 117.283 174.6C117.716 174.6 118.09 174.55 118.403 174.45C118.723 174.35 118.996 174.243 119.223 174.13C119.456 174.01 119.65 173.9 119.803 173.8C119.963 173.7 120.103 173.65 120.223 173.65C120.383 173.65 120.506 173.71 120.593 173.83L121.153 174.55ZM125.589 165.84V176H123.639V165.84H125.589ZM125.959 162.7C125.959 162.88 125.922 163.053 125.849 163.22C125.776 163.38 125.676 163.523 125.549 163.65C125.429 163.77 125.286 163.867 125.119 163.94C124.952 164.007 124.779 164.04 124.599 164.04C124.419 164.04 124.249 164.007 124.089 163.94C123.929 163.867 123.786 163.77 123.659 163.65C123.539 163.523 123.442 163.38 123.369 163.22C123.302 163.053 123.269 162.88 123.269 162.7C123.269 162.513 123.302 162.34 123.369 162.18C123.442 162.013 123.539 161.87 123.659 161.75C123.786 161.623 123.929 161.527 124.089 161.46C124.249 161.387 124.419 161.35 124.599 161.35C124.779 161.35 124.952 161.387 125.119 161.46C125.286 161.527 125.429 161.623 125.549 161.75C125.676 161.87 125.776 162.013 125.849 162.18C125.922 162.34 125.959 162.513 125.959 162.7ZM135.112 168.3C134.792 167.88 134.446 167.587 134.072 167.42C133.706 167.253 133.292 167.17 132.832 167.17C131.939 167.17 131.246 167.493 130.752 168.14C130.266 168.78 130.022 169.717 130.022 170.95C130.022 171.597 130.076 172.15 130.182 172.61C130.296 173.063 130.456 173.437 130.662 173.73C130.876 174.017 131.136 174.23 131.442 174.37C131.749 174.503 132.096 174.57 132.482 174.57C133.049 174.57 133.539 174.443 133.952 174.19C134.366 173.937 134.752 173.58 135.112 173.12V168.3ZM137.072 161.24V176H135.892C135.619 176 135.449 175.87 135.382 175.61L135.212 174.44C134.779 174.953 134.286 175.367 133.732 175.68C133.186 175.987 132.552 176.14 131.832 176.14C131.252 176.14 130.726 176.027 130.252 175.8C129.786 175.573 129.386 175.243 129.052 174.81C128.719 174.37 128.462 173.827 128.282 173.18C128.102 172.533 128.012 171.79 128.012 170.95C128.012 170.197 128.112 169.497 128.312 168.85C128.512 168.203 128.802 167.643 129.182 167.17C129.562 166.697 130.022 166.327 130.562 166.06C131.102 165.787 131.712 165.65 132.392 165.65C133.006 165.65 133.526 165.75 133.952 165.95C134.386 166.15 134.772 166.433 135.112 166.8V161.24H137.072ZM148.393 165.84V176H147.223C146.956 176 146.783 175.87 146.703 175.61L146.563 174.59C146.343 174.823 146.113 175.037 145.873 175.23C145.633 175.423 145.376 175.59 145.103 175.73C144.829 175.863 144.539 175.967 144.233 176.04C143.926 176.12 143.596 176.16 143.243 176.16C142.683 176.16 142.189 176.067 141.763 175.88C141.343 175.693 140.989 175.433 140.703 175.1C140.416 174.76 140.199 174.353 140.053 173.88C139.906 173.407 139.833 172.883 139.833 172.31V165.84H141.793V172.31C141.793 173.037 141.959 173.603 142.293 174.01C142.626 174.41 143.136 174.61 143.823 174.61C144.323 174.61 144.789 174.493 145.223 174.26C145.656 174.02 146.063 173.693 146.443 173.28V165.84H148.393ZM153.095 167.25C153.315 167.017 153.545 166.803 153.785 166.61C154.025 166.417 154.278 166.253 154.545 166.12C154.818 165.98 155.108 165.873 155.415 165.8C155.728 165.72 156.061 165.68 156.415 165.68C156.975 165.68 157.465 165.773 157.885 165.96C158.311 166.147 158.668 166.41 158.955 166.75C159.241 167.083 159.458 167.487 159.605 167.96C159.751 168.433 159.825 168.957 159.825 169.53V176H157.865V169.53C157.865 168.803 157.698 168.24 157.365 167.84C157.031 167.433 156.521 167.23 155.835 167.23C155.335 167.23 154.865 167.35 154.425 167.59C153.991 167.823 153.588 168.143 153.215 168.55V176H151.265V165.84H152.435C152.708 165.84 152.878 165.97 152.945 166.23L153.095 167.25ZM166.176 170.93C166.523 170.93 166.826 170.883 167.086 170.79C167.353 170.697 167.573 170.567 167.746 170.4C167.926 170.227 168.059 170.02 168.146 169.78C168.239 169.54 168.286 169.277 168.286 168.99C168.286 168.403 168.106 167.937 167.746 167.59C167.393 167.237 166.869 167.06 166.176 167.06C165.489 167.06 164.966 167.237 164.606 167.59C164.253 167.937 164.076 168.403 164.076 168.99C164.076 169.277 164.119 169.54 164.206 169.78C164.299 170.013 164.433 170.217 164.606 170.39C164.786 170.557 165.006 170.69 165.266 170.79C165.533 170.883 165.836 170.93 166.176 170.93ZM169.286 176.53C169.286 176.29 169.219 176.1 169.086 175.96C168.953 175.813 168.769 175.7 168.536 175.62C168.309 175.533 168.043 175.473 167.736 175.44C167.429 175.4 167.106 175.37 166.766 175.35C166.433 175.33 166.089 175.313 165.736 175.3C165.383 175.28 165.043 175.247 164.716 175.2C164.369 175.373 164.083 175.583 163.856 175.83C163.636 176.077 163.526 176.367 163.526 176.7C163.526 176.913 163.579 177.113 163.686 177.3C163.799 177.487 163.969 177.647 164.196 177.78C164.429 177.92 164.719 178.027 165.066 178.1C165.419 178.18 165.839 178.22 166.326 178.22C166.806 178.22 167.229 178.177 167.596 178.09C167.963 178.01 168.269 177.893 168.516 177.74C168.769 177.593 168.959 177.417 169.086 177.21C169.219 177.003 169.286 176.777 169.286 176.53ZM171.266 166.22V166.95C171.266 167.19 171.116 167.34 170.816 167.4L169.726 167.56C169.819 167.767 169.893 167.987 169.946 168.22C169.999 168.447 170.026 168.687 170.026 168.94C170.026 169.44 169.929 169.893 169.736 170.3C169.543 170.7 169.276 171.043 168.936 171.33C168.596 171.617 168.189 171.837 167.716 171.99C167.249 172.143 166.736 172.22 166.176 172.22C165.716 172.22 165.286 172.17 164.886 172.07C164.686 172.19 164.533 172.323 164.426 172.47C164.326 172.61 164.276 172.75 164.276 172.89C164.276 173.123 164.373 173.297 164.566 173.41C164.766 173.523 165.023 173.607 165.336 173.66C165.656 173.707 166.019 173.737 166.426 173.75C166.839 173.763 167.256 173.787 167.676 173.82C168.103 173.847 168.519 173.9 168.926 173.98C169.339 174.053 169.703 174.177 170.016 174.35C170.336 174.517 170.593 174.75 170.786 175.05C170.986 175.343 171.086 175.727 171.086 176.2C171.086 176.64 170.976 177.067 170.756 177.48C170.543 177.893 170.229 178.26 169.816 178.58C169.403 178.9 168.899 179.157 168.306 179.35C167.713 179.543 167.039 179.64 166.286 179.64C165.533 179.64 164.876 179.567 164.316 179.42C163.763 179.273 163.299 179.077 162.926 178.83C162.559 178.583 162.283 178.297 162.096 177.97C161.916 177.643 161.826 177.303 161.826 176.95C161.826 176.457 161.979 176.04 162.286 175.7C162.593 175.353 163.016 175.083 163.556 174.89C163.263 174.757 163.029 174.577 162.856 174.35C162.683 174.117 162.596 173.81 162.596 173.43C162.596 173.283 162.623 173.133 162.676 172.98C162.729 172.82 162.809 172.663 162.916 172.51C163.029 172.35 163.166 172.2 163.326 172.06C163.493 171.92 163.683 171.793 163.896 171.68C163.396 171.4 163.003 171.03 162.716 170.57C162.429 170.103 162.286 169.56 162.286 168.94C162.286 168.44 162.383 167.99 162.576 167.59C162.769 167.19 163.036 166.847 163.376 166.56C163.723 166.273 164.133 166.053 164.606 165.9C165.086 165.747 165.609 165.67 166.176 165.67C167.056 165.67 167.813 165.853 168.446 166.22H171.266ZM179.195 167.59C179.142 167.677 179.085 167.74 179.025 167.78C178.965 167.813 178.888 167.83 178.795 167.83C178.688 167.83 178.568 167.793 178.435 167.72C178.308 167.647 178.152 167.567 177.965 167.48C177.785 167.393 177.572 167.313 177.325 167.24C177.078 167.167 176.785 167.13 176.445 167.13C176.165 167.13 175.908 167.167 175.675 167.24C175.448 167.307 175.255 167.403 175.095 167.53C174.935 167.65 174.812 167.797 174.725 167.97C174.638 168.137 174.595 168.317 174.595 168.51C174.595 168.763 174.668 168.973 174.815 169.14C174.968 169.307 175.165 169.45 175.405 169.57C175.652 169.69 175.928 169.8 176.235 169.9C176.548 169.993 176.865 170.093 177.185 170.2C177.512 170.307 177.828 170.43 178.135 170.57C178.448 170.703 178.725 170.873 178.965 171.08C179.212 171.28 179.408 171.523 179.555 171.81C179.708 172.097 179.785 172.447 179.785 172.86C179.785 173.333 179.698 173.773 179.525 174.18C179.358 174.58 179.108 174.927 178.775 175.22C178.448 175.513 178.042 175.743 177.555 175.91C177.068 176.077 176.512 176.16 175.885 176.16C175.185 176.16 174.538 176.043 173.945 175.81C173.352 175.577 172.855 175.28 172.455 174.92L172.915 174.17C172.968 174.077 173.035 174.007 173.115 173.96C173.195 173.907 173.302 173.88 173.435 173.88C173.562 173.88 173.692 173.927 173.825 174.02C173.958 174.113 174.118 174.217 174.305 174.33C174.492 174.437 174.718 174.537 174.985 174.63C175.252 174.717 175.585 174.76 175.985 174.76C176.318 174.76 176.608 174.72 176.855 174.64C177.102 174.553 177.305 174.44 177.465 174.3C177.632 174.153 177.755 173.987 177.835 173.8C177.915 173.613 177.955 173.417 177.955 173.21C177.955 172.943 177.878 172.723 177.725 172.55C177.578 172.37 177.382 172.217 177.135 172.09C176.895 171.963 176.618 171.853 176.305 171.76C175.992 171.667 175.672 171.567 175.345 171.46C175.018 171.353 174.698 171.23 174.385 171.09C174.072 170.95 173.792 170.773 173.545 170.56C173.305 170.347 173.108 170.087 172.955 169.78C172.808 169.473 172.735 169.1 172.735 168.66C172.735 168.267 172.815 167.89 172.975 167.53C173.142 167.17 173.378 166.853 173.685 166.58C173.998 166.307 174.382 166.09 174.835 165.93C175.295 165.763 175.818 165.68 176.405 165.68C177.078 165.68 177.685 165.787 178.225 166C178.772 166.213 179.238 166.507 179.625 166.88L179.195 167.59ZM182.727 176V167.44L181.667 167.31C181.513 167.277 181.387 167.223 181.287 167.15C181.193 167.07 181.147 166.957 181.147 166.81V166H182.727V165.51C182.727 164.89 182.823 164.32 183.017 163.8C183.217 163.273 183.513 162.82 183.907 162.44C184.307 162.06 184.8 161.767 185.387 161.56C185.98 161.347 186.673 161.24 187.467 161.24C187.72 161.24 187.987 161.257 188.267 161.29C188.547 161.323 188.783 161.373 188.977 161.44L188.907 162.46C188.893 162.593 188.81 162.663 188.657 162.67C188.503 162.677 188.29 162.68 188.017 162.68C187.41 162.68 186.893 162.74 186.467 162.86C186.04 162.98 185.69 163.16 185.417 163.4C185.143 163.64 184.943 163.943 184.817 164.31C184.69 164.67 184.627 165.09 184.627 165.57V166H190.807V176H188.847V167.42H184.687V176H182.727ZM195.609 167.25C195.829 167.017 196.059 166.803 196.299 166.61C196.539 166.417 196.792 166.253 197.059 166.12C197.332 165.98 197.622 165.873 197.929 165.8C198.242 165.72 198.575 165.68 198.929 165.68C199.489 165.68 199.979 165.773 200.399 165.96C200.825 166.147 201.182 166.41 201.469 166.75C201.755 167.083 201.972 167.487 202.119 167.96C202.265 168.433 202.339 168.957 202.339 169.53V176H200.379V169.53C200.379 168.803 200.212 168.24 199.879 167.84C199.545 167.433 199.035 167.23 198.349 167.23C197.849 167.23 197.379 167.35 196.939 167.59C196.505 167.823 196.102 168.143 195.729 168.55V176H193.779V165.84H194.949C195.222 165.84 195.392 165.97 195.459 166.23L195.609 167.25ZM211.67 168.3C211.35 167.88 211.003 167.587 210.63 167.42C210.263 167.253 209.85 167.17 209.39 167.17C208.497 167.17 207.803 167.493 207.31 168.14C206.823 168.78 206.58 169.717 206.58 170.95C206.58 171.597 206.633 172.15 206.74 172.61C206.853 173.063 207.013 173.437 207.22 173.73C207.433 174.017 207.693 174.23 208 174.37C208.307 174.503 208.653 174.57 209.04 174.57C209.607 174.57 210.097 174.443 210.51 174.19C210.923 173.937 211.31 173.58 211.67 173.12V168.3ZM213.63 161.24V176H212.45C212.177 176 212.007 175.87 211.94 175.61L211.77 174.44C211.337 174.953 210.843 175.367 210.29 175.68C209.743 175.987 209.11 176.14 208.39 176.14C207.81 176.14 207.283 176.027 206.81 175.8C206.343 175.573 205.943 175.243 205.61 174.81C205.277 174.37 205.02 173.827 204.84 173.18C204.66 172.533 204.57 171.79 204.57 170.95C204.57 170.197 204.67 169.497 204.87 168.85C205.07 168.203 205.36 167.643 205.74 167.17C206.12 166.697 206.58 166.327 207.12 166.06C207.66 165.787 208.27 165.65 208.95 165.65C209.563 165.65 210.083 165.75 210.51 165.95C210.943 166.15 211.33 166.433 211.67 166.8V161.24H213.63ZM224.95 165.84V176H223.78C223.514 176 223.34 175.87 223.26 175.61L223.12 174.59C222.9 174.823 222.67 175.037 222.43 175.23C222.19 175.423 221.934 175.59 221.66 175.73C221.387 175.863 221.097 175.967 220.79 176.04C220.484 176.12 220.154 176.16 219.8 176.16C219.24 176.16 218.747 176.067 218.32 175.88C217.9 175.693 217.547 175.433 217.26 175.1C216.974 174.76 216.757 174.353 216.61 173.88C216.464 173.407 216.39 172.883 216.39 172.31V165.84H218.35V172.31C218.35 173.037 218.517 173.603 218.85 174.01C219.184 174.41 219.694 174.61 220.38 174.61C220.88 174.61 221.347 174.493 221.78 174.26C222.214 174.02 222.62 173.693 223 173.28V165.84H224.95ZM229.652 167.25C229.872 167.017 230.102 166.803 230.342 166.61C230.582 166.417 230.836 166.253 231.102 166.12C231.376 165.98 231.666 165.873 231.972 165.8C232.286 165.72 232.619 165.68 232.972 165.68C233.532 165.68 234.022 165.773 234.442 165.96C234.869 166.147 235.226 166.41 235.512 166.75C235.799 167.083 236.016 167.487 236.162 167.96C236.309 168.433 236.382 168.957 236.382 169.53V176H234.422V169.53C234.422 168.803 234.256 168.24 233.922 167.84C233.589 167.433 233.079 167.23 232.392 167.23C231.892 167.23 231.422 167.35 230.982 167.59C230.549 167.823 230.146 168.143 229.772 168.55V176H227.822V165.84H228.992C229.266 165.84 229.436 165.97 229.502 166.23L229.652 167.25ZM242.734 170.93C243.08 170.93 243.384 170.883 243.644 170.79C243.91 170.697 244.13 170.567 244.304 170.4C244.484 170.227 244.617 170.02 244.704 169.78C244.797 169.54 244.844 169.277 244.844 168.99C244.844 168.403 244.664 167.937 244.304 167.59C243.95 167.237 243.427 167.06 242.734 167.06C242.047 167.06 241.524 167.237 241.164 167.59C240.81 167.937 240.634 168.403 240.634 168.99C240.634 169.277 240.677 169.54 240.764 169.78C240.857 170.013 240.99 170.217 241.164 170.39C241.344 170.557 241.564 170.69 241.824 170.79C242.09 170.883 242.394 170.93 242.734 170.93ZM245.844 176.53C245.844 176.29 245.777 176.1 245.644 175.96C245.51 175.813 245.327 175.7 245.094 175.62C244.867 175.533 244.6 175.473 244.294 175.44C243.987 175.4 243.664 175.37 243.324 175.35C242.99 175.33 242.647 175.313 242.294 175.3C241.94 175.28 241.6 175.247 241.274 175.2C240.927 175.373 240.64 175.583 240.414 175.83C240.194 176.077 240.084 176.367 240.084 176.7C240.084 176.913 240.137 177.113 240.244 177.3C240.357 177.487 240.527 177.647 240.754 177.78C240.987 177.92 241.277 178.027 241.624 178.1C241.977 178.18 242.397 178.22 242.884 178.22C243.364 178.22 243.787 178.177 244.154 178.09C244.52 178.01 244.827 177.893 245.074 177.74C245.327 177.593 245.517 177.417 245.644 177.21C245.777 177.003 245.844 176.777 245.844 176.53ZM247.824 166.22V166.95C247.824 167.19 247.674 167.34 247.374 167.4L246.284 167.56C246.377 167.767 246.45 167.987 246.504 168.22C246.557 168.447 246.584 168.687 246.584 168.94C246.584 169.44 246.487 169.893 246.294 170.3C246.1 170.7 245.834 171.043 245.494 171.33C245.154 171.617 244.747 171.837 244.274 171.99C243.807 172.143 243.294 172.22 242.734 172.22C242.274 172.22 241.844 172.17 241.444 172.07C241.244 172.19 241.09 172.323 240.984 172.47C240.884 172.61 240.834 172.75 240.834 172.89C240.834 173.123 240.93 173.297 241.124 173.41C241.324 173.523 241.58 173.607 241.894 173.66C242.214 173.707 242.577 173.737 242.984 173.75C243.397 173.763 243.814 173.787 244.234 173.82C244.66 173.847 245.077 173.9 245.484 173.98C245.897 174.053 246.26 174.177 246.574 174.35C246.894 174.517 247.15 174.75 247.344 175.05C247.544 175.343 247.644 175.727 247.644 176.2C247.644 176.64 247.534 177.067 247.314 177.48C247.1 177.893 246.787 178.26 246.374 178.58C245.96 178.9 245.457 179.157 244.864 179.35C244.27 179.543 243.597 179.64 242.844 179.64C242.09 179.64 241.434 179.567 240.874 179.42C240.32 179.273 239.857 179.077 239.484 178.83C239.117 178.583 238.84 178.297 238.654 177.97C238.474 177.643 238.384 177.303 238.384 176.95C238.384 176.457 238.537 176.04 238.844 175.7C239.15 175.353 239.574 175.083 240.114 174.89C239.82 174.757 239.587 174.577 239.414 174.35C239.24 174.117 239.154 173.81 239.154 173.43C239.154 173.283 239.18 173.133 239.234 172.98C239.287 172.82 239.367 172.663 239.474 172.51C239.587 172.35 239.724 172.2 239.884 172.06C240.05 171.92 240.24 171.793 240.454 171.68C239.954 171.4 239.56 171.03 239.274 170.57C238.987 170.103 238.844 169.56 238.844 168.94C238.844 168.44 238.94 167.99 239.134 167.59C239.327 167.19 239.594 166.847 239.934 166.56C240.28 166.273 240.69 166.053 241.164 165.9C241.644 165.747 242.167 165.67 242.734 165.67C243.614 165.67 244.37 165.853 245.004 166.22H247.824Z" fill="white"/>
</g>
<defs>
<filter id="filter0_d_1426_448" x="21" y="16" width="258" height="48" filterUnits="userSpaceOnUse" color-interpolation-filters="sRGB">
<feFlood flood-opacity="0" result="BackgroundImageFix"/>
<feColorMatrix in="SourceAlpha" type="matrix" values="0 0 0 0 0 0 0 0 0 0 0 0 0 0 0 0 0 0 127 0" result="hardAlpha"/>
<feOffset dy="4"/>
<feGaussianBlur stdDeviation="2"/>
<feComposite in2="hardAlpha" operator="out"/>
<feColorMatrix type="matrix" values="0 0 0 0 0 0 0 0 0 0 0 0 0 0 0 0 0 0 0.25 0"/>
<feBlend mode="normal" in2="BackgroundImageFix" result="effect1_dropShadow_1426_448"/>
<feBlend mode="normal" in="SourceGraphic" in2="effect1_dropShadow_1426_448" result="shape"/>
</filter>
<filter id="filter1_d_1426_448" x="21" y="60" width="258" height="48" filterUnits="userSpaceOnUse" color-interpolation-filters="sRGB">
<feFlood flood-opacity="0" result="BackgroundImageFix"/>
<feColorMatrix in="SourceAlpha" type="matrix" values="0 0 0 0 0 0 0 0 0 0 0 0 0 0 0 0 0 0 127 0" result="hardAlpha"/>
<feOffset dy="4"/>
<feGaussianBlur stdDeviation="2"/>
<feComposite in2="hardAlpha" operator="out"/>
<feColorMatrix type="matrix" values="0 0 0 0 0 0 0 0 0 0 0 0 0 0 0 0 0 0 0.25 0"/>
<feBlend mode="normal" in2="BackgroundImageFix" result="effect1_dropShadow_1426_448"/>
<feBlend mode="normal" in="SourceGraphic" in2="effect1_dropShadow_1426_448" result="shape"/>
</filter>
<filter id="filter2_d_1426_448" x="21" y="104" width="258" height="48" filterUnits="userSpaceOnUse" color-interpolation-filters="sRGB">
<feFlood flood-opacity="0" result="BackgroundImageFix"/>
<feColorMatrix in="SourceAlpha" type="matrix" values="0 0 0 0 0 0 0 0 0 0 0 0 0 0 0 0 0 0 127 0" result="hardAlpha"/>
<feOffset dy="4"/>
<feGaussianBlur stdDeviation="2"/>
<feComposite in2="hardAlpha" operator="out"/>
<feColorMatrix type="matrix" values="0 0 0 0 0 0 0 0 0 0 0 0 0 0 0 0 0 0 0.25 0"/>
<feBlend mode="normal" in2="BackgroundImageFix" result="effect1_dropShadow_1426_448"/>
<feBlend mode="normal" in="SourceGraphic" in2="effect1_dropShadow_1426_448" result="shape"/>
</filter>
<filter id="filter3_d_1426_448" x="21" y="148" width="258" height="48" filterUnits="userSpaceOnUse" color-interpolation-filters="sRGB">
<feFlood flood-opacity="0" result="BackgroundImageFix"/>
<feColorMatrix in="SourceAlpha" type="matrix" values="0 0 0 0 0 0 0 0 0 0 0 0 0 0 0 0 0 0 127 0" result="hardAlpha"/>
<feOffset dy="4"/>
<feGaussianBlur stdDeviation="2"/>
<feComposite in2="hardAlpha" operator="out"/>
<feColorMatrix type="matrix" values="0 0 0 0 0 0 0 0 0 0 0 0 0 0 0 0 0 0 0.25 0"/>
<feBlend mode="normal" in2="BackgroundImageFix" result="effect1_dropShadow_1426_448"/>
<feBlend mode="normal" in="SourceGraphic" in2="effect1_dropShadow_1426_448" result="shape"/>
</filter>
</defs>
</svg>
