<svg width="258" height="184" viewBox="0 0 258 184" fill="none" xmlns="http://www.w3.org/2000/svg">
<g filter="url(#filter0_d_1449_538)">
<rect x="4" y="4" width="250" height="40" rx="8" fill="#3F3F3F" fill-opacity="0.51" shape-rendering="crispEdges"/>
<path d="M73.34 24.56C73.8867 24.56 74.3667 24.4933 74.78 24.36C75.2 24.2267 75.55 24.04 75.83 23.8C76.11 23.5533 76.32 23.2633 76.46 22.93C76.6 22.59 76.67 22.2167 76.67 21.81C76.67 20.9833 76.3967 20.36 75.85 19.94C75.31 19.52 74.4967 19.31 73.41 19.31H71.4V24.56H73.34ZM80.04 32H78.14C77.76 32 77.4833 31.85 77.31 31.55L73.76 26.57C73.6467 26.4033 73.5233 26.2867 73.39 26.22C73.2567 26.1467 73.0567 26.11 72.79 26.11H71.4V32H69.27V17.64H73.41C74.3367 17.64 75.1333 17.7367 75.8 17.93C76.4733 18.1167 77.0267 18.3867 77.46 18.74C77.9 19.0867 78.2233 19.5067 78.43 20C78.6433 20.4933 78.75 21.0467 78.75 21.66C78.75 22.16 78.6733 22.63 78.52 23.07C78.3667 23.51 78.14 23.9067 77.84 24.26C77.5467 24.6067 77.1867 24.9067 76.76 25.16C76.3333 25.4133 75.85 25.6067 75.31 25.74C75.5767 25.9 75.8067 26.1233 76 26.41L80.04 32ZM85.3031 21.68C86.0498 21.68 86.7231 21.8033 87.3231 22.05C87.9298 22.29 88.4431 22.64 88.8631 23.1C89.2898 23.5533 89.6165 24.1033 89.8431 24.75C90.0698 25.39 90.1831 26.11 90.1831 26.91C90.1831 27.71 90.0698 28.4333 89.8431 29.08C89.6165 29.7267 89.2898 30.2767 88.8631 30.73C88.4431 31.1833 87.9298 31.5333 87.3231 31.78C86.7231 32.02 86.0498 32.14 85.3031 32.14C84.5498 32.14 83.8698 32.02 83.2631 31.78C82.6631 31.5333 82.1498 31.1833 81.7231 30.73C81.2965 30.2767 80.9665 29.7267 80.7331 29.08C80.5065 28.4333 80.3931 27.71 80.3931 26.91C80.3931 26.11 80.5065 25.39 80.7331 24.75C80.9665 24.1033 81.2965 23.5533 81.7231 23.1C82.1498 22.64 82.6631 22.29 83.2631 22.05C83.8698 21.8033 84.5498 21.68 85.3031 21.68ZM85.3031 30.62C86.2631 30.62 86.9798 30.2967 87.4531 29.65C87.9265 29.0033 88.1631 28.0933 88.1631 26.92C88.1631 25.7467 87.9265 24.8367 87.4531 24.19C86.9798 23.5367 86.2631 23.21 85.3031 23.21C84.3298 23.21 83.6031 23.5367 83.1231 24.19C82.6498 24.8367 82.4131 25.7467 82.4131 26.92C82.4131 28.0933 82.6498 29.0033 83.1231 29.65C83.6031 30.2967 84.3298 30.62 85.3031 30.62ZM94.5098 17.24V32H92.5498V17.24H94.5098ZM99.445 17.24V32H97.485V17.24H99.445ZM109.11 25.79C109.11 25.4033 109.053 25.0467 108.94 24.72C108.833 24.3933 108.673 24.11 108.46 23.87C108.247 23.63 107.987 23.4433 107.68 23.31C107.373 23.1767 107.02 23.11 106.62 23.11C105.8 23.11 105.153 23.3467 104.68 23.82C104.213 24.2933 103.917 24.95 103.79 25.79H109.11ZM110.72 30.55C110.48 30.83 110.203 31.0733 109.89 31.28C109.577 31.48 109.243 31.6433 108.89 31.77C108.537 31.8967 108.17 31.99 107.79 32.05C107.417 32.11 107.047 32.14 106.68 32.14C105.98 32.14 105.33 32.0233 104.73 31.79C104.137 31.55 103.62 31.2033 103.18 30.75C102.747 30.29 102.407 29.7233 102.16 29.05C101.92 28.37 101.8 27.59 101.8 26.71C101.8 26.0033 101.91 25.3467 102.13 24.74C102.35 24.1267 102.663 23.5933 103.07 23.14C103.483 22.6867 103.987 22.33 104.58 22.07C105.173 21.81 105.84 21.68 106.58 21.68C107.2 21.68 107.77 21.7833 108.29 21.99C108.817 22.19 109.27 22.4833 109.65 22.87C110.03 23.2567 110.327 23.7333 110.54 24.3C110.76 24.8667 110.87 25.5133 110.87 26.24C110.87 26.54 110.837 26.7433 110.77 26.85C110.703 26.95 110.58 27 110.4 27H103.74C103.76 27.6067 103.847 28.1367 104 28.59C104.153 29.0367 104.363 29.41 104.63 29.71C104.903 30.01 105.227 30.2333 105.6 30.38C105.973 30.5267 106.39 30.6 106.85 30.6C107.283 30.6 107.657 30.55 107.97 30.45C108.29 30.35 108.563 30.2433 108.79 30.13C109.023 30.01 109.217 29.9 109.37 29.8C109.53 29.7 109.67 29.65 109.79 29.65C109.95 29.65 110.073 29.71 110.16 29.83L110.72 30.55ZM114.946 23.25C115.166 23.0167 115.396 22.8033 115.636 22.61C115.876 22.4167 116.129 22.2533 116.396 22.12C116.669 21.98 116.959 21.8733 117.266 21.8C117.579 21.72 117.913 21.68 118.266 21.68C118.826 21.68 119.316 21.7733 119.736 21.96C120.163 22.1467 120.519 22.41 120.806 22.75C121.093 23.0833 121.309 23.4867 121.456 23.96C121.603 24.4333 121.676 24.9567 121.676 25.53V32H119.716V25.53C119.716 24.8033 119.549 24.24 119.216 23.84C118.883 23.4333 118.373 23.23 117.686 23.23C117.186 23.23 116.716 23.35 116.276 23.59C115.843 23.8233 115.439 24.1433 115.066 24.55V32H113.116V21.84H114.286C114.559 21.84 114.729 21.97 114.796 22.23L114.946 23.25ZM126.408 17.24V25.87H126.868C127.008 25.87 127.124 25.85 127.218 25.81C127.311 25.77 127.408 25.69 127.508 25.57L130.548 22.22C130.641 22.0933 130.744 22 130.858 21.94C130.971 21.8733 131.114 21.84 131.288 21.84H133.068L129.478 25.77C129.284 26.0167 129.078 26.2067 128.858 26.34C128.984 26.4267 129.094 26.5267 129.188 26.64C129.288 26.7533 129.384 26.8767 129.478 27.01L133.298 32H131.548C131.388 32 131.248 31.9733 131.128 31.92C131.014 31.8667 130.911 31.77 130.818 31.63L127.678 27.55C127.578 27.3967 127.478 27.3 127.378 27.26C127.278 27.2133 127.128 27.19 126.928 27.19H126.408V32H124.458V17.24H126.408ZM136.9 17.24V32H134.94V17.24H136.9ZM145.296 27.49C144.502 27.5167 143.829 27.58 143.276 27.68C142.722 27.7733 142.272 27.9 141.926 28.06C141.579 28.22 141.329 28.41 141.176 28.63C141.022 28.8433 140.946 29.0833 140.946 29.35C140.946 29.6033 140.986 29.8233 141.066 30.01C141.152 30.19 141.266 30.34 141.406 30.46C141.552 30.5733 141.722 30.6567 141.916 30.71C142.109 30.7633 142.319 30.79 142.546 30.79C142.846 30.79 143.119 30.76 143.366 30.7C143.619 30.64 143.856 30.5567 144.076 30.45C144.296 30.3367 144.506 30.2 144.706 30.04C144.906 29.88 145.102 29.6967 145.296 29.49V27.49ZM139.576 23.26C140.142 22.72 140.756 22.3167 141.416 22.05C142.082 21.7833 142.812 21.65 143.606 21.65C144.186 21.65 144.699 21.7467 145.146 21.94C145.592 22.1267 145.969 22.39 146.276 22.73C146.582 23.07 146.812 23.4767 146.966 23.95C147.126 24.4233 147.206 24.9467 147.206 25.52V32H146.336C146.142 32 145.996 31.97 145.896 31.91C145.796 31.8433 145.716 31.7233 145.656 31.55L145.446 30.66C145.186 30.9 144.929 31.1133 144.676 31.3C144.422 31.48 144.156 31.6367 143.876 31.77C143.602 31.8967 143.309 31.9933 142.996 32.06C142.682 32.1267 142.336 32.16 141.956 32.16C141.556 32.16 141.179 32.1067 140.826 32C140.479 31.8867 140.176 31.7167 139.916 31.49C139.656 31.2633 139.449 30.98 139.296 30.64C139.149 30.3 139.076 29.9033 139.076 29.45C139.076 29.05 139.182 28.6667 139.396 28.3C139.616 27.9267 139.969 27.5933 140.456 27.3C140.949 27.0067 141.589 26.7667 142.376 26.58C143.169 26.3933 144.142 26.2867 145.296 26.26V25.52C145.296 24.7533 145.132 24.18 144.806 23.8C144.479 23.42 143.999 23.23 143.366 23.23C142.939 23.23 142.579 23.2833 142.286 23.39C141.999 23.4967 141.749 23.6167 141.536 23.75C141.329 23.8767 141.146 23.9933 140.986 24.1C140.832 24.2067 140.672 24.26 140.506 24.26C140.372 24.26 140.256 24.2233 140.156 24.15C140.062 24.0767 139.986 23.99 139.926 23.89L139.576 23.26ZM151.806 23.79C152.133 23.1233 152.526 22.6 152.986 22.22C153.446 21.84 153.999 21.65 154.646 21.65C154.866 21.65 155.073 21.6767 155.266 21.73C155.466 21.7767 155.639 21.85 155.786 21.95L155.656 23.42C155.609 23.6 155.499 23.69 155.326 23.69C155.233 23.69 155.093 23.6733 154.906 23.64C154.719 23.6 154.519 23.58 154.306 23.58C153.993 23.58 153.716 23.6267 153.476 23.72C153.236 23.8067 153.019 23.94 152.826 24.12C152.639 24.2933 152.473 24.51 152.326 24.77C152.179 25.0233 152.043 25.3133 151.916 25.64V32H149.966V21.84H151.086C151.299 21.84 151.443 21.88 151.516 21.96C151.596 22.0333 151.653 22.1667 151.686 22.36L151.806 23.79ZM159.39 23.13C159.817 22.6967 160.287 22.3467 160.8 22.08C161.32 21.8133 161.917 21.68 162.59 21.68C163.15 21.68 163.64 21.7733 164.06 21.96C164.487 22.1467 164.844 22.41 165.13 22.75C165.417 23.0833 165.634 23.4867 165.78 23.96C165.927 24.4333 166 24.9567 166 25.53V32H164.04V25.53C164.04 24.8033 163.874 24.24 163.54 23.84C163.207 23.4333 162.697 23.23 162.01 23.23C161.51 23.23 161.04 23.35 160.6 23.59C160.167 23.8233 159.764 24.1433 159.39 24.55V32H157.44V17.24H159.39V23.13ZM175.512 25.79C175.512 25.4033 175.455 25.0467 175.342 24.72C175.235 24.3933 175.075 24.11 174.862 23.87C174.648 23.63 174.388 23.4433 174.082 23.31C173.775 23.1767 173.422 23.11 173.022 23.11C172.202 23.11 171.555 23.3467 171.082 23.82C170.615 24.2933 170.318 24.95 170.192 25.79H175.512ZM177.122 30.55C176.882 30.83 176.605 31.0733 176.292 31.28C175.978 31.48 175.645 31.6433 175.292 31.77C174.938 31.8967 174.572 31.99 174.192 32.05C173.818 32.11 173.448 32.14 173.082 32.14C172.382 32.14 171.732 32.0233 171.132 31.79C170.538 31.55 170.022 31.2033 169.582 30.75C169.148 30.29 168.808 29.7233 168.562 29.05C168.322 28.37 168.202 27.59 168.202 26.71C168.202 26.0033 168.312 25.3467 168.532 24.74C168.752 24.1267 169.065 23.5933 169.472 23.14C169.885 22.6867 170.388 22.33 170.982 22.07C171.575 21.81 172.242 21.68 172.982 21.68C173.602 21.68 174.172 21.7833 174.692 21.99C175.218 22.19 175.672 22.4833 176.052 22.87C176.432 23.2567 176.728 23.7333 176.942 24.3C177.162 24.8667 177.272 25.5133 177.272 26.24C177.272 26.54 177.238 26.7433 177.172 26.85C177.105 26.95 176.982 27 176.802 27H170.142C170.162 27.6067 170.248 28.1367 170.402 28.59C170.555 29.0367 170.765 29.41 171.032 29.71C171.305 30.01 171.628 30.2333 172.002 30.38C172.375 30.5267 172.792 30.6 173.252 30.6C173.685 30.6 174.058 30.55 174.372 30.45C174.692 30.35 174.965 30.2433 175.192 30.13C175.425 30.01 175.618 29.9 175.772 29.8C175.932 29.7 176.072 29.65 176.192 29.65C176.352 29.65 176.475 29.71 176.562 29.83L177.122 30.55ZM181.558 21.84V32H179.608V21.84H181.558ZM181.928 18.7C181.928 18.88 181.891 19.0533 181.818 19.22C181.744 19.38 181.644 19.5233 181.518 19.65C181.398 19.77 181.254 19.8667 181.088 19.94C180.921 20.0067 180.748 20.04 180.568 20.04C180.388 20.04 180.218 20.0067 180.058 19.94C179.898 19.8667 179.754 19.77 179.628 19.65C179.508 19.5233 179.411 19.38 179.338 19.22C179.271 19.0533 179.238 18.88 179.238 18.7C179.238 18.5133 179.271 18.34 179.338 18.18C179.411 18.0133 179.508 17.87 179.628 17.75C179.754 17.6233 179.898 17.5267 180.058 17.46C180.218 17.3867 180.388 17.35 180.568 17.35C180.748 17.35 180.921 17.3867 181.088 17.46C181.254 17.5267 181.398 17.6233 181.518 17.75C181.644 17.87 181.744 18.0133 181.818 18.18C181.891 18.34 181.928 18.5133 181.928 18.7ZM187.711 32.16C186.891 32.16 186.258 31.93 185.811 31.47C185.371 31.01 185.151 30.3533 185.151 29.5V23.42H183.971C183.858 23.42 183.761 23.3867 183.681 23.32C183.608 23.2467 183.571 23.14 183.571 23V22.21L185.221 21.98L185.661 18.95C185.688 18.8367 185.738 18.75 185.811 18.69C185.891 18.6233 185.991 18.59 186.111 18.59H187.101V22H189.981V23.42H187.101V29.37C187.101 29.77 187.198 30.07 187.391 30.27C187.591 30.4633 187.844 30.56 188.151 30.56C188.331 30.56 188.484 30.5367 188.611 30.49C188.744 30.4433 188.858 30.3933 188.951 30.34C189.044 30.28 189.124 30.2267 189.191 30.18C189.258 30.1333 189.318 30.11 189.371 30.11C189.438 30.11 189.488 30.1267 189.521 30.16C189.561 30.1867 189.601 30.2333 189.641 30.3L190.221 31.24C189.901 31.5333 189.521 31.76 189.081 31.92C188.641 32.08 188.184 32.16 187.711 32.16Z" fill="white"/>
</g>
<g filter="url(#filter1_d_1449_538)">
<rect x="4" y="48" width="250" height="40" rx="8" fill="#3F3F3F" fill-opacity="0.51" shape-rendering="crispEdges"/>
<path d="M90.41 63.37V68.18H96.17V69.91H90.41V76H88.27V61.64H97.17V63.37H90.41ZM105.18 69.79C105.18 69.4033 105.123 69.0467 105.01 68.72C104.903 68.3933 104.743 68.11 104.53 67.87C104.316 67.63 104.056 67.4433 103.75 67.31C103.443 67.1767 103.09 67.11 102.69 67.11C101.87 67.11 101.223 67.3467 100.75 67.82C100.283 68.2933 99.9864 68.95 99.8597 69.79H105.18ZM106.79 74.55C106.55 74.83 106.273 75.0733 105.96 75.28C105.646 75.48 105.313 75.6433 104.96 75.77C104.606 75.8967 104.24 75.99 103.86 76.05C103.486 76.11 103.116 76.14 102.75 76.14C102.05 76.14 101.4 76.0233 100.8 75.79C100.206 75.55 99.6897 75.2033 99.2497 74.75C98.8164 74.29 98.4764 73.7233 98.2297 73.05C97.9897 72.37 97.8697 71.59 97.8697 70.71C97.8697 70.0033 97.9797 69.3467 98.1997 68.74C98.4197 68.1267 98.733 67.5933 99.1397 67.14C99.553 66.6867 100.056 66.33 100.65 66.07C101.243 65.81 101.91 65.68 102.65 65.68C103.27 65.68 103.84 65.7833 104.36 65.99C104.886 66.19 105.34 66.4833 105.72 66.87C106.1 67.2567 106.396 67.7333 106.61 68.3C106.83 68.8667 106.94 69.5133 106.94 70.24C106.94 70.54 106.906 70.7433 106.84 70.85C106.773 70.95 106.65 71 106.47 71H99.8097C99.8297 71.6067 99.9164 72.1367 100.07 72.59C100.223 73.0367 100.433 73.41 100.7 73.71C100.973 74.01 101.296 74.2333 101.67 74.38C102.043 74.5267 102.46 74.6 102.92 74.6C103.353 74.6 103.726 74.55 104.04 74.45C104.36 74.35 104.633 74.2433 104.86 74.13C105.093 74.01 105.286 73.9 105.44 73.8C105.6 73.7 105.74 73.65 105.86 73.65C106.02 73.65 106.143 73.71 106.23 73.83L106.79 74.55ZM115.916 69.79C115.916 69.4033 115.859 69.0467 115.746 68.72C115.639 68.3933 115.479 68.11 115.266 67.87C115.052 67.63 114.792 67.4433 114.486 67.31C114.179 67.1767 113.826 67.11 113.426 67.11C112.606 67.11 111.959 67.3467 111.486 67.82C111.019 68.2933 110.722 68.95 110.596 69.79H115.916ZM117.526 74.55C117.286 74.83 117.009 75.0733 116.696 75.28C116.382 75.48 116.049 75.6433 115.696 75.77C115.342 75.8967 114.976 75.99 114.596 76.05C114.222 76.11 113.852 76.14 113.486 76.14C112.786 76.14 112.136 76.0233 111.536 75.79C110.942 75.55 110.426 75.2033 109.986 74.75C109.552 74.29 109.212 73.7233 108.966 73.05C108.726 72.37 108.606 71.59 108.606 70.71C108.606 70.0033 108.716 69.3467 108.936 68.74C109.156 68.1267 109.469 67.5933 109.876 67.14C110.289 66.6867 110.792 66.33 111.386 66.07C111.979 65.81 112.646 65.68 113.386 65.68C114.006 65.68 114.576 65.7833 115.096 65.99C115.622 66.19 116.076 66.4833 116.456 66.87C116.836 67.2567 117.132 67.7333 117.346 68.3C117.566 68.8667 117.676 69.5133 117.676 70.24C117.676 70.54 117.642 70.7433 117.576 70.85C117.509 70.95 117.386 71 117.206 71H110.546C110.566 71.6067 110.652 72.1367 110.806 72.59C110.959 73.0367 111.169 73.41 111.436 73.71C111.709 74.01 112.032 74.2333 112.406 74.38C112.779 74.5267 113.196 74.6 113.656 74.6C114.089 74.6 114.462 74.55 114.776 74.45C115.096 74.35 115.369 74.2433 115.596 74.13C115.829 74.01 116.022 73.9 116.176 73.8C116.336 73.7 116.476 73.65 116.596 73.65C116.756 73.65 116.879 73.71 116.966 73.83L117.526 74.55ZM126.472 68.3C126.152 67.88 125.805 67.5867 125.432 67.42C125.065 67.2533 124.652 67.17 124.192 67.17C123.298 67.17 122.605 67.4933 122.112 68.14C121.625 68.78 121.382 69.7167 121.382 70.95C121.382 71.5967 121.435 72.15 121.542 72.61C121.655 73.0633 121.815 73.4367 122.022 73.73C122.235 74.0167 122.495 74.23 122.802 74.37C123.108 74.5033 123.455 74.57 123.842 74.57C124.408 74.57 124.898 74.4433 125.312 74.19C125.725 73.9367 126.112 73.58 126.472 73.12V68.3ZM128.432 61.24V76H127.252C126.978 76 126.808 75.87 126.742 75.61L126.572 74.44C126.138 74.9533 125.645 75.3667 125.092 75.68C124.545 75.9867 123.912 76.14 123.192 76.14C122.612 76.14 122.085 76.0267 121.612 75.8C121.145 75.5733 120.745 75.2433 120.412 74.81C120.078 74.37 119.822 73.8267 119.642 73.18C119.462 72.5333 119.372 71.79 119.372 70.95C119.372 70.1967 119.472 69.4967 119.672 68.85C119.872 68.2033 120.162 67.6433 120.542 67.17C120.922 66.6967 121.382 66.3267 121.922 66.06C122.462 65.7867 123.072 65.65 123.752 65.65C124.365 65.65 124.885 65.75 125.312 65.95C125.745 66.15 126.132 66.4333 126.472 66.8V61.24H128.432ZM133.252 73.5C133.572 73.92 133.919 74.2133 134.292 74.38C134.665 74.5467 135.072 74.63 135.512 74.63C136.419 74.63 137.115 74.3067 137.602 73.66C138.095 73.0133 138.342 72.0367 138.342 70.73C138.342 69.5233 138.125 68.64 137.692 68.08C137.259 67.5133 136.645 67.23 135.852 67.23C135.292 67.23 134.805 67.3567 134.392 67.61C133.985 67.8633 133.605 68.2233 133.252 68.69V73.5ZM133.252 67.24C133.672 66.7733 134.149 66.3967 134.682 66.11C135.215 65.8233 135.822 65.68 136.502 65.68C137.095 65.68 137.629 65.7967 138.102 66.03C138.582 66.2567 138.989 66.5867 139.322 67.02C139.655 67.4467 139.912 67.9667 140.092 68.58C140.272 69.1933 140.362 69.8867 140.362 70.66C140.362 71.48 140.259 72.2267 140.052 72.9C139.852 73.5733 139.562 74.15 139.182 74.63C138.809 75.11 138.352 75.4833 137.812 75.75C137.272 76.01 136.665 76.14 135.992 76.14C135.665 76.14 135.365 76.1067 135.092 76.04C134.819 75.98 134.565 75.89 134.332 75.77C134.105 75.65 133.895 75.5033 133.702 75.33C133.509 75.1567 133.325 74.96 133.152 74.74L133.062 75.59C133.009 75.8633 132.842 76 132.562 76H131.302V61.24H133.252V67.24ZM148.143 71.49C147.349 71.5167 146.676 71.58 146.123 71.68C145.569 71.7733 145.119 71.9 144.773 72.06C144.426 72.22 144.176 72.41 144.023 72.63C143.869 72.8433 143.793 73.0833 143.793 73.35C143.793 73.6033 143.833 73.8233 143.913 74.01C143.999 74.19 144.113 74.34 144.252 74.46C144.399 74.5733 144.569 74.6567 144.763 74.71C144.956 74.7633 145.166 74.79 145.393 74.79C145.693 74.79 145.966 74.76 146.213 74.7C146.466 74.64 146.703 74.5567 146.923 74.45C147.143 74.3367 147.353 74.2 147.553 74.04C147.753 73.88 147.949 73.6967 148.143 73.49V71.49ZM142.423 67.26C142.989 66.72 143.603 66.3167 144.263 66.05C144.929 65.7833 145.659 65.65 146.452 65.65C147.033 65.65 147.546 65.7467 147.993 65.94C148.439 66.1267 148.816 66.39 149.123 66.73C149.429 67.07 149.659 67.4767 149.813 67.95C149.973 68.4233 150.053 68.9467 150.053 69.52V76H149.183C148.989 76 148.843 75.97 148.743 75.91C148.643 75.8433 148.563 75.7233 148.503 75.55L148.293 74.66C148.033 74.9 147.776 75.1133 147.523 75.3C147.269 75.48 147.003 75.6367 146.723 75.77C146.449 75.8967 146.156 75.9933 145.843 76.06C145.529 76.1267 145.183 76.16 144.803 76.16C144.403 76.16 144.026 76.1067 143.673 76C143.326 75.8867 143.023 75.7167 142.763 75.49C142.503 75.2633 142.296 74.98 142.143 74.64C141.996 74.3 141.923 73.9033 141.923 73.45C141.923 73.05 142.029 72.6667 142.243 72.3C142.463 71.9267 142.816 71.5933 143.303 71.3C143.796 71.0067 144.436 70.7667 145.223 70.58C146.016 70.3933 146.989 70.2867 148.143 70.26V69.52C148.143 68.7533 147.979 68.18 147.653 67.8C147.326 67.42 146.846 67.23 146.213 67.23C145.786 67.23 145.426 67.2833 145.133 67.39C144.846 67.4967 144.596 67.6167 144.383 67.75C144.176 67.8767 143.993 67.9933 143.833 68.1C143.679 68.2067 143.519 68.26 143.353 68.26C143.219 68.26 143.103 68.2233 143.003 68.15C142.909 68.0767 142.833 67.99 142.773 67.89L142.423 67.26ZM159.933 67.74C159.873 67.8133 159.813 67.8733 159.753 67.92C159.7 67.96 159.62 67.98 159.513 67.98C159.406 67.98 159.293 67.94 159.173 67.86C159.06 67.7733 158.913 67.6833 158.733 67.59C158.56 67.49 158.346 67.4 158.093 67.32C157.846 67.2333 157.54 67.19 157.173 67.19C156.693 67.19 156.27 67.2767 155.903 67.45C155.536 67.6233 155.23 67.87 154.983 68.19C154.743 68.51 154.56 68.9 154.433 69.36C154.306 69.82 154.243 70.3367 154.243 70.91C154.243 71.5033 154.31 72.0333 154.443 72.5C154.576 72.96 154.766 73.35 155.013 73.67C155.26 73.9833 155.56 74.2233 155.913 74.39C156.266 74.55 156.66 74.63 157.093 74.63C157.513 74.63 157.86 74.58 158.133 74.48C158.406 74.3733 158.633 74.26 158.813 74.14C158.993 74.02 159.143 73.91 159.263 73.81C159.383 73.7033 159.506 73.65 159.633 73.65C159.793 73.65 159.916 73.71 160.003 73.83L160.563 74.55C160.33 74.8367 160.066 75.08 159.773 75.28C159.486 75.48 159.18 75.6433 158.853 75.77C158.526 75.8967 158.183 75.99 157.823 76.05C157.47 76.11 157.11 76.14 156.743 76.14C156.11 76.14 155.516 76.0233 154.963 75.79C154.416 75.5567 153.94 75.2167 153.533 74.77C153.133 74.3233 152.816 73.7767 152.583 73.13C152.35 72.4767 152.233 71.7367 152.233 70.91C152.233 70.1567 152.336 69.46 152.543 68.82C152.756 68.18 153.066 67.63 153.473 67.17C153.886 66.7033 154.393 66.34 154.993 66.08C155.593 65.8133 156.28 65.68 157.053 65.68C157.78 65.68 158.42 65.7967 158.973 66.03C159.526 66.2633 160.02 66.5933 160.453 67.02L159.933 67.74ZM164.483 61.24V69.87H164.943C165.083 69.87 165.2 69.85 165.293 69.81C165.387 69.77 165.483 69.69 165.583 69.57L168.623 66.22C168.717 66.0933 168.82 66 168.933 65.94C169.047 65.8733 169.19 65.84 169.363 65.84H171.143L167.553 69.77C167.36 70.0167 167.153 70.2067 166.933 70.34C167.06 70.4267 167.17 70.5267 167.263 70.64C167.363 70.7533 167.46 70.8767 167.553 71.01L171.373 76H169.623C169.463 76 169.323 75.9733 169.203 75.92C169.09 75.8667 168.987 75.77 168.893 75.63L165.753 71.55C165.653 71.3967 165.553 71.3 165.453 71.26C165.353 71.2133 165.203 71.19 165.003 71.19H164.483V76H162.533V61.24H164.483Z" fill="white"/>
</g>
<g filter="url(#filter2_d_1449_538)">
<rect x="4" y="92" width="250" height="40" rx="8" fill="#3F3F3F" fill-opacity="0.51" shape-rendering="crispEdges"/>
<path d="M41.18 118.27L41.17 120H32.27V105.64H41.17V107.37H34.41V111.92H39.85V113.59H34.41V118.27H41.18ZM45.1391 111.25C45.3591 111.017 45.5891 110.803 45.8291 110.61C46.0691 110.417 46.3224 110.253 46.5891 110.12C46.8624 109.98 47.1524 109.873 47.4591 109.8C47.7724 109.72 48.1057 109.68 48.4591 109.68C49.0191 109.68 49.5091 109.773 49.9291 109.96C50.3557 110.147 50.7124 110.41 50.9991 110.75C51.2857 111.083 51.5024 111.487 51.6491 111.96C51.7957 112.433 51.8691 112.957 51.8691 113.53V120H49.9091V113.53C49.9091 112.803 49.7424 112.24 49.4091 111.84C49.0757 111.433 48.5657 111.23 47.8791 111.23C47.3791 111.23 46.9091 111.35 46.4691 111.59C46.0357 111.823 45.6324 112.143 45.2591 112.55V120H43.3091V109.84H44.4791C44.7524 109.84 44.9224 109.97 44.9891 110.23L45.1391 111.25ZM57.6937 120.16C56.8737 120.16 56.2404 119.93 55.7937 119.47C55.3537 119.01 55.1337 118.353 55.1337 117.5V111.42H53.9537C53.8404 111.42 53.7437 111.387 53.6637 111.32C53.5904 111.247 53.5537 111.14 53.5537 111V110.21L55.2037 109.98L55.6437 106.95C55.6704 106.837 55.7204 106.75 55.7937 106.69C55.8737 106.623 55.9737 106.59 56.0937 106.59H57.0837V110H59.9637V111.42H57.0837V117.37C57.0837 117.77 57.1804 118.07 57.3737 118.27C57.5737 118.463 57.8271 118.56 58.1337 118.56C58.3137 118.56 58.4671 118.537 58.5937 118.49C58.7271 118.443 58.8404 118.393 58.9337 118.34C59.0271 118.28 59.1071 118.227 59.1737 118.18C59.2404 118.133 59.3004 118.11 59.3537 118.11C59.4204 118.11 59.4704 118.127 59.5037 118.16C59.5437 118.187 59.5837 118.233 59.6237 118.3L60.2037 119.24C59.8837 119.533 59.5037 119.76 59.0637 119.92C58.6237 120.08 58.1671 120.16 57.6937 120.16ZM67.8998 111.59C67.8465 111.677 67.7898 111.74 67.7298 111.78C67.6698 111.813 67.5932 111.83 67.4998 111.83C67.3932 111.83 67.2732 111.793 67.1398 111.72C67.0132 111.647 66.8565 111.567 66.6698 111.48C66.4898 111.393 66.2765 111.313 66.0298 111.24C65.7832 111.167 65.4898 111.13 65.1498 111.13C64.8698 111.13 64.6132 111.167 64.3798 111.24C64.1532 111.307 63.9598 111.403 63.7998 111.53C63.6398 111.65 63.5165 111.797 63.4298 111.97C63.3432 112.137 63.2998 112.317 63.2998 112.51C63.2998 112.763 63.3732 112.973 63.5198 113.14C63.6732 113.307 63.8698 113.45 64.1098 113.57C64.3565 113.69 64.6332 113.8 64.9398 113.9C65.2532 113.993 65.5698 114.093 65.8898 114.2C66.2165 114.307 66.5332 114.43 66.8398 114.57C67.1532 114.703 67.4298 114.873 67.6698 115.08C67.9165 115.28 68.1132 115.523 68.2598 115.81C68.4132 116.097 68.4898 116.447 68.4898 116.86C68.4898 117.333 68.4032 117.773 68.2298 118.18C68.0632 118.58 67.8132 118.927 67.4798 119.22C67.1532 119.513 66.7465 119.743 66.2598 119.91C65.7732 120.077 65.2165 120.16 64.5898 120.16C63.8898 120.16 63.2432 120.043 62.6498 119.81C62.0565 119.577 61.5598 119.28 61.1598 118.92L61.6198 118.17C61.6732 118.077 61.7398 118.007 61.8198 117.96C61.8998 117.907 62.0065 117.88 62.1398 117.88C62.2665 117.88 62.3965 117.927 62.5298 118.02C62.6632 118.113 62.8232 118.217 63.0098 118.33C63.1965 118.437 63.4232 118.537 63.6898 118.63C63.9565 118.717 64.2898 118.76 64.6898 118.76C65.0232 118.76 65.3132 118.72 65.5598 118.64C65.8065 118.553 66.0098 118.44 66.1698 118.3C66.3365 118.153 66.4598 117.987 66.5398 117.8C66.6198 117.613 66.6598 117.417 66.6598 117.21C66.6598 116.943 66.5832 116.723 66.4298 116.55C66.2832 116.37 66.0865 116.217 65.8398 116.09C65.5998 115.963 65.3232 115.853 65.0098 115.76C64.6965 115.667 64.3765 115.567 64.0498 115.46C63.7232 115.353 63.4032 115.23 63.0898 115.09C62.7765 114.95 62.4965 114.773 62.2498 114.56C62.0098 114.347 61.8132 114.087 61.6598 113.78C61.5132 113.473 61.4398 113.1 61.4398 112.66C61.4398 112.267 61.5198 111.89 61.6798 111.53C61.8465 111.17 62.0832 110.853 62.3898 110.58C62.7032 110.307 63.0865 110.09 63.5398 109.93C63.9998 109.763 64.5232 109.68 65.1098 109.68C65.7832 109.68 66.3898 109.787 66.9298 110C67.4765 110.213 67.9432 110.507 68.3298 110.88L67.8998 111.59ZM77.8712 111.74C77.8112 111.813 77.7512 111.873 77.6912 111.92C77.6379 111.96 77.5579 111.98 77.4512 111.98C77.3446 111.98 77.2312 111.94 77.1112 111.86C76.9979 111.773 76.8512 111.683 76.6712 111.59C76.4979 111.49 76.2846 111.4 76.0312 111.32C75.7846 111.233 75.4779 111.19 75.1112 111.19C74.6312 111.19 74.2079 111.277 73.8412 111.45C73.4746 111.623 73.1679 111.87 72.9212 112.19C72.6812 112.51 72.4979 112.9 72.3712 113.36C72.2446 113.82 72.1812 114.337 72.1812 114.91C72.1812 115.503 72.2479 116.033 72.3812 116.5C72.5146 116.96 72.7046 117.35 72.9512 117.67C73.1979 117.983 73.4979 118.223 73.8512 118.39C74.2046 118.55 74.5979 118.63 75.0312 118.63C75.4512 118.63 75.7979 118.58 76.0712 118.48C76.3446 118.373 76.5712 118.26 76.7512 118.14C76.9312 118.02 77.0812 117.91 77.2012 117.81C77.3212 117.703 77.4446 117.65 77.5712 117.65C77.7312 117.65 77.8546 117.71 77.9412 117.83L78.5012 118.55C78.2679 118.837 78.0046 119.08 77.7112 119.28C77.4246 119.48 77.1179 119.643 76.7912 119.77C76.4646 119.897 76.1212 119.99 75.7612 120.05C75.4079 120.11 75.0479 120.14 74.6812 120.14C74.0479 120.14 73.4546 120.023 72.9012 119.79C72.3546 119.557 71.8779 119.217 71.4712 118.77C71.0712 118.323 70.7546 117.777 70.5212 117.13C70.2879 116.477 70.1712 115.737 70.1712 114.91C70.1712 114.157 70.2746 113.46 70.4812 112.82C70.6946 112.18 71.0046 111.63 71.4112 111.17C71.8246 110.703 72.3312 110.34 72.9312 110.08C73.5312 109.813 74.2179 109.68 74.9912 109.68C75.7179 109.68 76.3579 109.797 76.9112 110.03C77.4646 110.263 77.9579 110.593 78.3912 111.02L77.8712 111.74ZM82.4216 111.13C82.8482 110.697 83.3182 110.347 83.8316 110.08C84.3516 109.813 84.9482 109.68 85.6216 109.68C86.1816 109.68 86.6716 109.773 87.0916 109.96C87.5182 110.147 87.8749 110.41 88.1616 110.75C88.4482 111.083 88.6649 111.487 88.8116 111.96C88.9582 112.433 89.0316 112.957 89.0316 113.53V120H87.0716V113.53C87.0716 112.803 86.9049 112.24 86.5716 111.84C86.2382 111.433 85.7282 111.23 85.0416 111.23C84.5416 111.23 84.0716 111.35 83.6316 111.59C83.1982 111.823 82.7949 112.143 82.4216 112.55V120H80.4716V105.24H82.4216V111.13ZM98.543 113.79C98.543 113.403 98.4863 113.047 98.373 112.72C98.2663 112.393 98.1063 112.11 97.893 111.87C97.6796 111.63 97.4196 111.443 97.113 111.31C96.8063 111.177 96.453 111.11 96.053 111.11C95.233 111.11 94.5863 111.347 94.113 111.82C93.6463 112.293 93.3496 112.95 93.223 113.79H98.543ZM100.153 118.55C99.913 118.83 99.6363 119.073 99.323 119.28C99.0096 119.48 98.6763 119.643 98.323 119.77C97.9696 119.897 97.603 119.99 97.223 120.05C96.8496 120.11 96.4796 120.14 96.113 120.14C95.413 120.14 94.763 120.023 94.163 119.79C93.5696 119.55 93.053 119.203 92.613 118.75C92.1796 118.29 91.8396 117.723 91.593 117.05C91.353 116.37 91.233 115.59 91.233 114.71C91.233 114.003 91.343 113.347 91.563 112.74C91.783 112.127 92.0963 111.593 92.503 111.14C92.9163 110.687 93.4196 110.33 94.013 110.07C94.6063 109.81 95.273 109.68 96.013 109.68C96.633 109.68 97.203 109.783 97.723 109.99C98.2496 110.19 98.703 110.483 99.083 110.87C99.463 111.257 99.7596 111.733 99.973 112.3C100.193 112.867 100.303 113.513 100.303 114.24C100.303 114.54 100.27 114.743 100.203 114.85C100.136 114.95 100.013 115 99.833 115H93.173C93.193 115.607 93.2796 116.137 93.433 116.59C93.5863 117.037 93.7963 117.41 94.063 117.71C94.3363 118.01 94.6596 118.233 95.033 118.38C95.4063 118.527 95.823 118.6 96.283 118.6C96.7163 118.6 97.0896 118.55 97.403 118.45C97.723 118.35 97.9963 118.243 98.223 118.13C98.4563 118.01 98.6496 117.9 98.803 117.8C98.963 117.7 99.103 117.65 99.223 117.65C99.383 117.65 99.5063 117.71 99.593 117.83L100.153 118.55ZM104.589 109.84V120H102.639V109.84H104.589ZM104.959 106.7C104.959 106.88 104.922 107.053 104.849 107.22C104.776 107.38 104.676 107.523 104.549 107.65C104.429 107.77 104.286 107.867 104.119 107.94C103.952 108.007 103.779 108.04 103.599 108.04C103.419 108.04 103.249 108.007 103.089 107.94C102.929 107.867 102.786 107.77 102.659 107.65C102.539 107.523 102.442 107.38 102.369 107.22C102.302 107.053 102.269 106.88 102.269 106.7C102.269 106.513 102.302 106.34 102.369 106.18C102.442 106.013 102.539 105.87 102.659 105.75C102.786 105.623 102.929 105.527 103.089 105.46C103.249 105.387 103.419 105.35 103.599 105.35C103.779 105.35 103.952 105.387 104.119 105.46C104.286 105.527 104.429 105.623 104.549 105.75C104.676 105.87 104.776 106.013 104.849 106.18C104.922 106.34 104.959 106.513 104.959 106.7ZM114.112 112.3C113.792 111.88 113.446 111.587 113.072 111.42C112.706 111.253 112.292 111.17 111.832 111.17C110.939 111.17 110.246 111.493 109.752 112.14C109.266 112.78 109.022 113.717 109.022 114.95C109.022 115.597 109.076 116.15 109.182 116.61C109.296 117.063 109.456 117.437 109.662 117.73C109.876 118.017 110.136 118.23 110.442 118.37C110.749 118.503 111.096 118.57 111.482 118.57C112.049 118.57 112.539 118.443 112.952 118.19C113.366 117.937 113.752 117.58 114.112 117.12V112.3ZM116.072 105.24V120H114.892C114.619 120 114.449 119.87 114.382 119.61L114.212 118.44C113.779 118.953 113.286 119.367 112.732 119.68C112.186 119.987 111.552 120.14 110.832 120.14C110.252 120.14 109.726 120.027 109.252 119.8C108.786 119.573 108.386 119.243 108.052 118.81C107.719 118.37 107.462 117.827 107.282 117.18C107.102 116.533 107.012 115.79 107.012 114.95C107.012 114.197 107.112 113.497 107.312 112.85C107.512 112.203 107.802 111.643 108.182 111.17C108.562 110.697 109.022 110.327 109.562 110.06C110.102 109.787 110.712 109.65 111.392 109.65C112.006 109.65 112.526 109.75 112.952 109.95C113.386 110.15 113.772 110.433 114.112 110.8V105.24H116.072ZM127.393 109.84V120H126.223C125.956 120 125.783 119.87 125.703 119.61L125.563 118.59C125.343 118.823 125.113 119.037 124.873 119.23C124.633 119.423 124.376 119.59 124.103 119.73C123.829 119.863 123.539 119.967 123.233 120.04C122.926 120.12 122.596 120.16 122.243 120.16C121.683 120.16 121.189 120.067 120.763 119.88C120.343 119.693 119.989 119.433 119.703 119.1C119.416 118.76 119.199 118.353 119.053 117.88C118.906 117.407 118.833 116.883 118.833 116.31V109.84H120.793V116.31C120.793 117.037 120.959 117.603 121.293 118.01C121.626 118.41 122.136 118.61 122.823 118.61C123.323 118.61 123.789 118.493 124.223 118.26C124.656 118.02 125.063 117.693 125.443 117.28V109.84H127.393ZM132.095 111.25C132.315 111.017 132.545 110.803 132.785 110.61C133.025 110.417 133.278 110.253 133.545 110.12C133.818 109.98 134.108 109.873 134.415 109.8C134.728 109.72 135.061 109.68 135.415 109.68C135.975 109.68 136.465 109.773 136.885 109.96C137.311 110.147 137.668 110.41 137.955 110.75C138.241 111.083 138.458 111.487 138.605 111.96C138.751 112.433 138.825 112.957 138.825 113.53V120H136.865V113.53C136.865 112.803 136.698 112.24 136.365 111.84C136.031 111.433 135.521 111.23 134.835 111.23C134.335 111.23 133.865 111.35 133.425 111.59C132.991 111.823 132.588 112.143 132.215 112.55V120H130.265V109.84H131.435C131.708 109.84 131.878 109.97 131.945 110.23L132.095 111.25ZM145.176 114.93C145.523 114.93 145.826 114.883 146.086 114.79C146.353 114.697 146.573 114.567 146.746 114.4C146.926 114.227 147.059 114.02 147.146 113.78C147.239 113.54 147.286 113.277 147.286 112.99C147.286 112.403 147.106 111.937 146.746 111.59C146.393 111.237 145.869 111.06 145.176 111.06C144.489 111.06 143.966 111.237 143.606 111.59C143.253 111.937 143.076 112.403 143.076 112.99C143.076 113.277 143.119 113.54 143.206 113.78C143.299 114.013 143.433 114.217 143.606 114.39C143.786 114.557 144.006 114.69 144.266 114.79C144.533 114.883 144.836 114.93 145.176 114.93ZM148.286 120.53C148.286 120.29 148.219 120.1 148.086 119.96C147.953 119.813 147.769 119.7 147.536 119.62C147.309 119.533 147.043 119.473 146.736 119.44C146.429 119.4 146.106 119.37 145.766 119.35C145.433 119.33 145.089 119.313 144.736 119.3C144.383 119.28 144.043 119.247 143.716 119.2C143.369 119.373 143.083 119.583 142.856 119.83C142.636 120.077 142.526 120.367 142.526 120.7C142.526 120.913 142.579 121.113 142.686 121.3C142.799 121.487 142.969 121.647 143.196 121.78C143.429 121.92 143.719 122.027 144.066 122.1C144.419 122.18 144.839 122.22 145.326 122.22C145.806 122.22 146.229 122.177 146.596 122.09C146.963 122.01 147.269 121.893 147.516 121.74C147.769 121.593 147.959 121.417 148.086 121.21C148.219 121.003 148.286 120.777 148.286 120.53ZM150.266 110.22V110.95C150.266 111.19 150.116 111.34 149.816 111.4L148.726 111.56C148.819 111.767 148.893 111.987 148.946 112.22C148.999 112.447 149.026 112.687 149.026 112.94C149.026 113.44 148.929 113.893 148.736 114.3C148.543 114.7 148.276 115.043 147.936 115.33C147.596 115.617 147.189 115.837 146.716 115.99C146.249 116.143 145.736 116.22 145.176 116.22C144.716 116.22 144.286 116.17 143.886 116.07C143.686 116.19 143.533 116.323 143.426 116.47C143.326 116.61 143.276 116.75 143.276 116.89C143.276 117.123 143.373 117.297 143.566 117.41C143.766 117.523 144.023 117.607 144.336 117.66C144.656 117.707 145.019 117.737 145.426 117.75C145.839 117.763 146.256 117.787 146.676 117.82C147.103 117.847 147.519 117.9 147.926 117.98C148.339 118.053 148.703 118.177 149.016 118.35C149.336 118.517 149.593 118.75 149.786 119.05C149.986 119.343 150.086 119.727 150.086 120.2C150.086 120.64 149.976 121.067 149.756 121.48C149.543 121.893 149.229 122.26 148.816 122.58C148.403 122.9 147.899 123.157 147.306 123.35C146.713 123.543 146.039 123.64 145.286 123.64C144.533 123.64 143.876 123.567 143.316 123.42C142.763 123.273 142.299 123.077 141.926 122.83C141.559 122.583 141.283 122.297 141.096 121.97C140.916 121.643 140.826 121.303 140.826 120.95C140.826 120.457 140.979 120.04 141.286 119.7C141.593 119.353 142.016 119.083 142.556 118.89C142.263 118.757 142.029 118.577 141.856 118.35C141.683 118.117 141.596 117.81 141.596 117.43C141.596 117.283 141.623 117.133 141.676 116.98C141.729 116.82 141.809 116.663 141.916 116.51C142.029 116.35 142.166 116.2 142.326 116.06C142.493 115.92 142.683 115.793 142.896 115.68C142.396 115.4 142.003 115.03 141.716 114.57C141.429 114.103 141.286 113.56 141.286 112.94C141.286 112.44 141.383 111.99 141.576 111.59C141.769 111.19 142.036 110.847 142.376 110.56C142.723 110.273 143.133 110.053 143.606 109.9C144.086 109.747 144.609 109.67 145.176 109.67C146.056 109.67 146.813 109.853 147.446 110.22H150.266ZM158.195 111.59C158.142 111.677 158.085 111.74 158.025 111.78C157.965 111.813 157.888 111.83 157.795 111.83C157.688 111.83 157.568 111.793 157.435 111.72C157.308 111.647 157.152 111.567 156.965 111.48C156.785 111.393 156.572 111.313 156.325 111.24C156.078 111.167 155.785 111.13 155.445 111.13C155.165 111.13 154.908 111.167 154.675 111.24C154.448 111.307 154.255 111.403 154.095 111.53C153.935 111.65 153.812 111.797 153.725 111.97C153.638 112.137 153.595 112.317 153.595 112.51C153.595 112.763 153.668 112.973 153.815 113.14C153.968 113.307 154.165 113.45 154.405 113.57C154.652 113.69 154.928 113.8 155.235 113.9C155.548 113.993 155.865 114.093 156.185 114.2C156.512 114.307 156.828 114.43 157.135 114.57C157.448 114.703 157.725 114.873 157.965 115.08C158.212 115.28 158.408 115.523 158.555 115.81C158.708 116.097 158.785 116.447 158.785 116.86C158.785 117.333 158.698 117.773 158.525 118.18C158.358 118.58 158.108 118.927 157.775 119.22C157.448 119.513 157.042 119.743 156.555 119.91C156.068 120.077 155.512 120.16 154.885 120.16C154.185 120.16 153.538 120.043 152.945 119.81C152.352 119.577 151.855 119.28 151.455 118.92L151.915 118.17C151.968 118.077 152.035 118.007 152.115 117.96C152.195 117.907 152.302 117.88 152.435 117.88C152.562 117.88 152.692 117.927 152.825 118.02C152.958 118.113 153.118 118.217 153.305 118.33C153.492 118.437 153.718 118.537 153.985 118.63C154.252 118.717 154.585 118.76 154.985 118.76C155.318 118.76 155.608 118.72 155.855 118.64C156.102 118.553 156.305 118.44 156.465 118.3C156.632 118.153 156.755 117.987 156.835 117.8C156.915 117.613 156.955 117.417 156.955 117.21C156.955 116.943 156.878 116.723 156.725 116.55C156.578 116.37 156.382 116.217 156.135 116.09C155.895 115.963 155.618 115.853 155.305 115.76C154.992 115.667 154.672 115.567 154.345 115.46C154.018 115.353 153.698 115.23 153.385 115.09C153.072 114.95 152.792 114.773 152.545 114.56C152.305 114.347 152.108 114.087 151.955 113.78C151.808 113.473 151.735 113.1 151.735 112.66C151.735 112.267 151.815 111.89 151.975 111.53C152.142 111.17 152.378 110.853 152.685 110.58C152.998 110.307 153.382 110.09 153.835 109.93C154.295 109.763 154.818 109.68 155.405 109.68C156.078 109.68 156.685 109.787 157.225 110C157.772 110.213 158.238 110.507 158.625 110.88L158.195 111.59ZM161.727 120V111.44L160.667 111.31C160.513 111.277 160.387 111.223 160.287 111.15C160.193 111.07 160.147 110.957 160.147 110.81V110H161.727V109.51C161.727 108.89 161.823 108.32 162.017 107.8C162.217 107.273 162.513 106.82 162.907 106.44C163.307 106.06 163.8 105.767 164.387 105.56C164.98 105.347 165.673 105.24 166.467 105.24C166.72 105.24 166.987 105.257 167.267 105.29C167.547 105.323 167.783 105.373 167.977 105.44L167.907 106.46C167.893 106.593 167.81 106.663 167.657 106.67C167.503 106.677 167.29 106.68 167.017 106.68C166.41 106.68 165.893 106.74 165.467 106.86C165.04 106.98 164.69 107.16 164.417 107.4C164.143 107.64 163.943 107.943 163.817 108.31C163.69 108.67 163.627 109.09 163.627 109.57V110H169.807V120H167.847V111.42H163.687V120H161.727ZM174.609 111.25C174.829 111.017 175.059 110.803 175.299 110.61C175.539 110.417 175.792 110.253 176.059 110.12C176.332 109.98 176.622 109.873 176.929 109.8C177.242 109.72 177.575 109.68 177.929 109.68C178.489 109.68 178.979 109.773 179.399 109.96C179.825 110.147 180.182 110.41 180.469 110.75C180.755 111.083 180.972 111.487 181.119 111.96C181.265 112.433 181.339 112.957 181.339 113.53V120H179.379V113.53C179.379 112.803 179.212 112.24 178.879 111.84C178.545 111.433 178.035 111.23 177.349 111.23C176.849 111.23 176.379 111.35 175.939 111.59C175.505 111.823 175.102 112.143 174.729 112.55V120H172.779V109.84H173.949C174.222 109.84 174.392 109.97 174.459 110.23L174.609 111.25ZM190.67 112.3C190.35 111.88 190.003 111.587 189.63 111.42C189.263 111.253 188.85 111.17 188.39 111.17C187.497 111.17 186.803 111.493 186.31 112.14C185.823 112.78 185.58 113.717 185.58 114.95C185.58 115.597 185.633 116.15 185.74 116.61C185.853 117.063 186.013 117.437 186.22 117.73C186.433 118.017 186.693 118.23 187 118.37C187.307 118.503 187.653 118.57 188.04 118.57C188.607 118.57 189.097 118.443 189.51 118.19C189.923 117.937 190.31 117.58 190.67 117.12V112.3ZM192.63 105.24V120H191.45C191.177 120 191.007 119.87 190.94 119.61L190.77 118.44C190.337 118.953 189.843 119.367 189.29 119.68C188.743 119.987 188.11 120.14 187.39 120.14C186.81 120.14 186.283 120.027 185.81 119.8C185.343 119.573 184.943 119.243 184.61 118.81C184.277 118.37 184.02 117.827 183.84 117.18C183.66 116.533 183.57 115.79 183.57 114.95C183.57 114.197 183.67 113.497 183.87 112.85C184.07 112.203 184.36 111.643 184.74 111.17C185.12 110.697 185.58 110.327 186.12 110.06C186.66 109.787 187.27 109.65 187.95 109.65C188.563 109.65 189.083 109.75 189.51 109.95C189.943 110.15 190.33 110.433 190.67 110.8V105.24H192.63ZM203.95 109.84V120H202.78C202.514 120 202.34 119.87 202.26 119.61L202.12 118.59C201.9 118.823 201.67 119.037 201.43 119.23C201.19 119.423 200.934 119.59 200.66 119.73C200.387 119.863 200.097 119.967 199.79 120.04C199.484 120.12 199.154 120.16 198.8 120.16C198.24 120.16 197.747 120.067 197.32 119.88C196.9 119.693 196.547 119.433 196.26 119.1C195.974 118.76 195.757 118.353 195.61 117.88C195.464 117.407 195.39 116.883 195.39 116.31V109.84H197.35V116.31C197.35 117.037 197.517 117.603 197.85 118.01C198.184 118.41 198.694 118.61 199.38 118.61C199.88 118.61 200.347 118.493 200.78 118.26C201.214 118.02 201.62 117.693 202 117.28V109.84H203.95ZM208.652 111.25C208.872 111.017 209.102 110.803 209.342 110.61C209.582 110.417 209.836 110.253 210.102 110.12C210.376 109.98 210.666 109.873 210.972 109.8C211.286 109.72 211.619 109.68 211.972 109.68C212.532 109.68 213.022 109.773 213.442 109.96C213.869 110.147 214.226 110.41 214.512 110.75C214.799 111.083 215.016 111.487 215.162 111.96C215.309 112.433 215.382 112.957 215.382 113.53V120H213.422V113.53C213.422 112.803 213.256 112.24 212.922 111.84C212.589 111.433 212.079 111.23 211.392 111.23C210.892 111.23 210.422 111.35 209.982 111.59C209.549 111.823 209.146 112.143 208.772 112.55V120H206.822V109.84H207.992C208.266 109.84 208.436 109.97 208.502 110.23L208.652 111.25ZM221.734 114.93C222.08 114.93 222.384 114.883 222.644 114.79C222.91 114.697 223.13 114.567 223.304 114.4C223.484 114.227 223.617 114.02 223.704 113.78C223.797 113.54 223.844 113.277 223.844 112.99C223.844 112.403 223.664 111.937 223.304 111.59C222.95 111.237 222.427 111.06 221.734 111.06C221.047 111.06 220.524 111.237 220.164 111.59C219.81 111.937 219.634 112.403 219.634 112.99C219.634 113.277 219.677 113.54 219.764 113.78C219.857 114.013 219.99 114.217 220.164 114.39C220.344 114.557 220.564 114.69 220.824 114.79C221.09 114.883 221.394 114.93 221.734 114.93ZM224.844 120.53C224.844 120.29 224.777 120.1 224.644 119.96C224.51 119.813 224.327 119.7 224.094 119.62C223.867 119.533 223.6 119.473 223.294 119.44C222.987 119.4 222.664 119.37 222.324 119.35C221.99 119.33 221.647 119.313 221.294 119.3C220.94 119.28 220.6 119.247 220.274 119.2C219.927 119.373 219.64 119.583 219.414 119.83C219.194 120.077 219.084 120.367 219.084 120.7C219.084 120.913 219.137 121.113 219.244 121.3C219.357 121.487 219.527 121.647 219.754 121.78C219.987 121.92 220.277 122.027 220.624 122.1C220.977 122.18 221.397 122.22 221.884 122.22C222.364 122.22 222.787 122.177 223.154 122.09C223.52 122.01 223.827 121.893 224.074 121.74C224.327 121.593 224.517 121.417 224.644 121.21C224.777 121.003 224.844 120.777 224.844 120.53ZM226.824 110.22V110.95C226.824 111.19 226.674 111.34 226.374 111.4L225.284 111.56C225.377 111.767 225.45 111.987 225.504 112.22C225.557 112.447 225.584 112.687 225.584 112.94C225.584 113.44 225.487 113.893 225.294 114.3C225.1 114.7 224.834 115.043 224.494 115.33C224.154 115.617 223.747 115.837 223.274 115.99C222.807 116.143 222.294 116.22 221.734 116.22C221.274 116.22 220.844 116.17 220.444 116.07C220.244 116.19 220.09 116.323 219.984 116.47C219.884 116.61 219.834 116.75 219.834 116.89C219.834 117.123 219.93 117.297 220.124 117.41C220.324 117.523 220.58 117.607 220.894 117.66C221.214 117.707 221.577 117.737 221.984 117.75C222.397 117.763 222.814 117.787 223.234 117.82C223.66 117.847 224.077 117.9 224.484 117.98C224.897 118.053 225.26 118.177 225.574 118.35C225.894 118.517 226.15 118.75 226.344 119.05C226.544 119.343 226.644 119.727 226.644 120.2C226.644 120.64 226.534 121.067 226.314 121.48C226.1 121.893 225.787 122.26 225.374 122.58C224.96 122.9 224.457 123.157 223.864 123.35C223.27 123.543 222.597 123.64 221.844 123.64C221.09 123.64 220.434 123.567 219.874 123.42C219.32 123.273 218.857 123.077 218.484 122.83C218.117 122.583 217.84 122.297 217.654 121.97C217.474 121.643 217.384 121.303 217.384 120.95C217.384 120.457 217.537 120.04 217.844 119.7C218.15 119.353 218.574 119.083 219.114 118.89C218.82 118.757 218.587 118.577 218.414 118.35C218.24 118.117 218.154 117.81 218.154 117.43C218.154 117.283 218.18 117.133 218.234 116.98C218.287 116.82 218.367 116.663 218.474 116.51C218.587 116.35 218.724 116.2 218.884 116.06C219.05 115.92 219.24 115.793 219.454 115.68C218.954 115.4 218.56 115.03 218.274 114.57C217.987 114.103 217.844 113.56 217.844 112.94C217.844 112.44 217.94 111.99 218.134 111.59C218.327 111.19 218.594 110.847 218.934 110.56C219.28 110.273 219.69 110.053 220.164 109.9C220.644 109.747 221.167 109.67 221.734 109.67C222.614 109.67 223.37 109.853 224.004 110.22H226.824Z" fill="white"/>
</g>
<g filter="url(#filter3_d_1449_538)">
<rect x="4" y="136" width="250" height="40" rx="8" fill="#3F3F3F" fill-opacity="0.51" shape-rendering="crispEdges"/>
<path d="M81.87 149.64V164H80.01V153.78C80.01 153.627 80.0133 153.463 80.02 153.29C80.0333 153.117 80.0467 152.94 80.06 152.76L75.28 161.53C75.1133 161.857 74.8567 162.02 74.51 162.02H74.21C73.8633 162.02 73.61 161.857 73.45 161.53L68.58 152.73C68.62 153.103 68.64 153.453 68.64 153.78V164H66.77V149.64H68.35C68.5367 149.64 68.68 149.66 68.78 149.7C68.8867 149.733 68.9867 149.833 69.08 150L73.88 158.6C73.9733 158.773 74.06 158.957 74.14 159.15C74.22 159.343 74.2967 159.537 74.37 159.73C74.51 159.337 74.6733 158.957 74.86 158.59L79.57 150C79.6567 149.833 79.75 149.733 79.85 149.7C79.9567 149.66 80.1033 149.64 80.29 149.64H81.87ZM91.5898 157.79C91.5898 157.403 91.5332 157.047 91.4198 156.72C91.3132 156.393 91.1532 156.11 90.9398 155.87C90.7265 155.63 90.4665 155.443 90.1598 155.31C89.8532 155.177 89.4998 155.11 89.0998 155.11C88.2798 155.11 87.6332 155.347 87.1598 155.82C86.6932 156.293 86.3965 156.95 86.2698 157.79H91.5898ZM93.1998 162.55C92.9598 162.83 92.6832 163.073 92.3698 163.28C92.0565 163.48 91.7232 163.643 91.3698 163.77C91.0165 163.897 90.6498 163.99 90.2698 164.05C89.8965 164.11 89.5265 164.14 89.1598 164.14C88.4598 164.14 87.8098 164.023 87.2098 163.79C86.6165 163.55 86.0998 163.203 85.6598 162.75C85.2265 162.29 84.8865 161.723 84.6398 161.05C84.3998 160.37 84.2798 159.59 84.2798 158.71C84.2798 158.003 84.3898 157.347 84.6098 156.74C84.8298 156.127 85.1432 155.593 85.5498 155.14C85.9632 154.687 86.4665 154.33 87.0598 154.07C87.6532 153.81 88.3198 153.68 89.0598 153.68C89.6798 153.68 90.2498 153.783 90.7698 153.99C91.2965 154.19 91.7498 154.483 92.1298 154.87C92.5098 155.257 92.8065 155.733 93.0198 156.3C93.2398 156.867 93.3498 157.513 93.3498 158.24C93.3498 158.54 93.3165 158.743 93.2498 158.85C93.1832 158.95 93.0598 159 92.8798 159H86.2198C86.2398 159.607 86.3265 160.137 86.4798 160.59C86.6332 161.037 86.8432 161.41 87.1098 161.71C87.3832 162.01 87.7065 162.233 88.0798 162.38C88.4532 162.527 88.8698 162.6 89.3298 162.6C89.7632 162.6 90.1365 162.55 90.4498 162.45C90.7698 162.35 91.0432 162.243 91.2698 162.13C91.5032 162.01 91.6965 161.9 91.8498 161.8C92.0098 161.7 92.1498 161.65 92.2698 161.65C92.4298 161.65 92.5532 161.71 92.6398 161.83L93.1998 162.55ZM97.4258 155.25C97.6458 155.017 97.8758 154.803 98.1158 154.61C98.3558 154.417 98.6091 154.253 98.8758 154.12C99.1491 153.98 99.4391 153.873 99.7458 153.8C100.059 153.72 100.392 153.68 100.746 153.68C101.306 153.68 101.796 153.773 102.216 153.96C102.642 154.147 102.999 154.41 103.286 154.75C103.572 155.083 103.789 155.487 103.936 155.96C104.082 156.433 104.156 156.957 104.156 157.53V164H102.196V157.53C102.196 156.803 102.029 156.24 101.696 155.84C101.362 155.433 100.852 155.23 100.166 155.23C99.6658 155.23 99.1958 155.35 98.7558 155.59C98.3224 155.823 97.9191 156.143 97.5458 156.55V164H95.5958V153.84H96.7658C97.0391 153.84 97.2091 153.97 97.2758 154.23L97.4258 155.25ZM109.98 164.16C109.16 164.16 108.527 163.93 108.08 163.47C107.64 163.01 107.42 162.353 107.42 161.5V155.42H106.24C106.127 155.42 106.03 155.387 105.95 155.32C105.877 155.247 105.84 155.14 105.84 155V154.21L107.49 153.98L107.93 150.95C107.957 150.837 108.007 150.75 108.08 150.69C108.16 150.623 108.26 150.59 108.38 150.59H109.37V154H112.25V155.42H109.37V161.37C109.37 161.77 109.467 162.07 109.66 162.27C109.86 162.463 110.114 162.56 110.42 162.56C110.6 162.56 110.754 162.537 110.88 162.49C111.014 162.443 111.127 162.393 111.22 162.34C111.314 162.28 111.394 162.227 111.46 162.18C111.527 162.133 111.587 162.11 111.64 162.11C111.707 162.11 111.757 162.127 111.79 162.16C111.83 162.187 111.87 162.233 111.91 162.3L112.49 163.24C112.17 163.533 111.79 163.76 111.35 163.92C110.91 164.08 110.454 164.16 109.98 164.16ZM119.657 159.49C118.863 159.517 118.19 159.58 117.637 159.68C117.083 159.773 116.633 159.9 116.287 160.06C115.94 160.22 115.69 160.41 115.537 160.63C115.383 160.843 115.307 161.083 115.307 161.35C115.307 161.603 115.347 161.823 115.427 162.01C115.513 162.19 115.627 162.34 115.767 162.46C115.913 162.573 116.083 162.657 116.277 162.71C116.47 162.763 116.68 162.79 116.907 162.79C117.207 162.79 117.48 162.76 117.727 162.7C117.98 162.64 118.217 162.557 118.437 162.45C118.657 162.337 118.867 162.2 119.067 162.04C119.267 161.88 119.463 161.697 119.657 161.49V159.49ZM113.937 155.26C114.503 154.72 115.117 154.317 115.777 154.05C116.443 153.783 117.173 153.65 117.967 153.65C118.547 153.65 119.06 153.747 119.507 153.94C119.953 154.127 120.33 154.39 120.637 154.73C120.943 155.07 121.173 155.477 121.327 155.95C121.487 156.423 121.567 156.947 121.567 157.52V164H120.697C120.503 164 120.357 163.97 120.257 163.91C120.157 163.843 120.077 163.723 120.017 163.55L119.807 162.66C119.547 162.9 119.29 163.113 119.037 163.3C118.783 163.48 118.517 163.637 118.237 163.77C117.963 163.897 117.67 163.993 117.357 164.06C117.043 164.127 116.697 164.16 116.317 164.16C115.917 164.16 115.54 164.107 115.187 164C114.84 163.887 114.537 163.717 114.277 163.49C114.017 163.263 113.81 162.98 113.657 162.64C113.51 162.3 113.437 161.903 113.437 161.45C113.437 161.05 113.543 160.667 113.757 160.3C113.977 159.927 114.33 159.593 114.817 159.3C115.31 159.007 115.95 158.767 116.737 158.58C117.53 158.393 118.503 158.287 119.657 158.26V157.52C119.657 156.753 119.493 156.18 119.167 155.8C118.84 155.42 118.36 155.23 117.727 155.23C117.3 155.23 116.94 155.283 116.647 155.39C116.36 155.497 116.11 155.617 115.897 155.75C115.69 155.877 115.507 155.993 115.347 156.1C115.193 156.207 115.033 156.26 114.867 156.26C114.733 156.26 114.617 156.223 114.517 156.15C114.423 156.077 114.347 155.99 114.287 155.89L113.937 155.26ZM126.327 149.24V164H124.367V149.24H126.327ZM146.631 149.64V164H144.501V157.53H137.011V164H134.871V149.64H137.011V155.98H144.501V149.64H146.631ZM156.351 157.79C156.351 157.403 156.294 157.047 156.181 156.72C156.074 156.393 155.914 156.11 155.701 155.87C155.487 155.63 155.227 155.443 154.921 155.31C154.614 155.177 154.261 155.11 153.861 155.11C153.041 155.11 152.394 155.347 151.921 155.82C151.454 156.293 151.157 156.95 151.031 157.79H156.351ZM157.961 162.55C157.721 162.83 157.444 163.073 157.131 163.28C156.817 163.48 156.484 163.643 156.131 163.77C155.777 163.897 155.411 163.99 155.031 164.05C154.657 164.11 154.287 164.14 153.921 164.14C153.221 164.14 152.571 164.023 151.971 163.79C151.377 163.55 150.861 163.203 150.421 162.75C149.987 162.29 149.647 161.723 149.401 161.05C149.161 160.37 149.041 159.59 149.041 158.71C149.041 158.003 149.151 157.347 149.371 156.74C149.591 156.127 149.904 155.593 150.311 155.14C150.724 154.687 151.227 154.33 151.821 154.07C152.414 153.81 153.081 153.68 153.821 153.68C154.441 153.68 155.011 153.783 155.531 153.99C156.057 154.19 156.511 154.483 156.891 154.87C157.271 155.257 157.567 155.733 157.781 156.3C158.001 156.867 158.111 157.513 158.111 158.24C158.111 158.54 158.077 158.743 158.011 158.85C157.944 158.95 157.821 159 157.641 159H150.981C151.001 159.607 151.087 160.137 151.241 160.59C151.394 161.037 151.604 161.41 151.871 161.71C152.144 162.01 152.467 162.233 152.841 162.38C153.214 162.527 153.631 162.6 154.091 162.6C154.524 162.6 154.897 162.55 155.211 162.45C155.531 162.35 155.804 162.243 156.031 162.13C156.264 162.01 156.457 161.9 156.611 161.8C156.771 161.7 156.911 161.65 157.031 161.65C157.191 161.65 157.314 161.71 157.401 161.83L157.961 162.55ZM165.817 159.49C165.023 159.517 164.35 159.58 163.797 159.68C163.243 159.773 162.793 159.9 162.447 160.06C162.1 160.22 161.85 160.41 161.697 160.63C161.543 160.843 161.467 161.083 161.467 161.35C161.467 161.603 161.507 161.823 161.587 162.01C161.673 162.19 161.787 162.34 161.927 162.46C162.073 162.573 162.243 162.657 162.437 162.71C162.63 162.763 162.84 162.79 163.067 162.79C163.367 162.79 163.64 162.76 163.887 162.7C164.14 162.64 164.377 162.557 164.597 162.45C164.817 162.337 165.027 162.2 165.227 162.04C165.427 161.88 165.623 161.697 165.817 161.49V159.49ZM160.097 155.26C160.663 154.72 161.277 154.317 161.937 154.05C162.603 153.783 163.333 153.65 164.127 153.65C164.707 153.65 165.22 153.747 165.667 153.94C166.113 154.127 166.49 154.39 166.797 154.73C167.103 155.07 167.333 155.477 167.487 155.95C167.647 156.423 167.727 156.947 167.727 157.52V164H166.857C166.663 164 166.517 163.97 166.417 163.91C166.317 163.843 166.237 163.723 166.177 163.55L165.967 162.66C165.707 162.9 165.45 163.113 165.197 163.3C164.943 163.48 164.677 163.637 164.397 163.77C164.123 163.897 163.83 163.993 163.517 164.06C163.203 164.127 162.857 164.16 162.477 164.16C162.077 164.16 161.7 164.107 161.347 164C161 163.887 160.697 163.717 160.437 163.49C160.177 163.263 159.97 162.98 159.817 162.64C159.67 162.3 159.597 161.903 159.597 161.45C159.597 161.05 159.703 160.667 159.917 160.3C160.137 159.927 160.49 159.593 160.977 159.3C161.47 159.007 162.11 158.767 162.897 158.58C163.69 158.393 164.663 158.287 165.817 158.26V157.52C165.817 156.753 165.653 156.18 165.327 155.8C165 155.42 164.52 155.23 163.887 155.23C163.46 155.23 163.1 155.283 162.807 155.39C162.52 155.497 162.27 155.617 162.057 155.75C161.85 155.877 161.667 155.993 161.507 156.1C161.353 156.207 161.193 156.26 161.027 156.26C160.893 156.26 160.777 156.223 160.677 156.15C160.583 156.077 160.507 155.99 160.447 155.89L160.097 155.26ZM172.487 149.24V164H170.527V149.24H172.487ZM178.602 164.16C177.782 164.16 177.149 163.93 176.702 163.47C176.262 163.01 176.042 162.353 176.042 161.5V155.42H174.862C174.749 155.42 174.652 155.387 174.572 155.32C174.499 155.247 174.462 155.14 174.462 155V154.21L176.112 153.98L176.552 150.95C176.579 150.837 176.629 150.75 176.702 150.69C176.782 150.623 176.882 150.59 177.002 150.59H177.992V154H180.872V155.42H177.992V161.37C177.992 161.77 178.089 162.07 178.282 162.27C178.482 162.463 178.736 162.56 179.042 162.56C179.222 162.56 179.376 162.537 179.502 162.49C179.636 162.443 179.749 162.393 179.842 162.34C179.936 162.28 180.016 162.227 180.082 162.18C180.149 162.133 180.209 162.11 180.262 162.11C180.329 162.11 180.379 162.127 180.412 162.16C180.452 162.187 180.492 162.233 180.532 162.3L181.112 163.24C180.792 163.533 180.412 163.76 179.972 163.92C179.532 164.08 179.076 164.16 178.602 164.16ZM184.768 155.13C185.195 154.697 185.665 154.347 186.178 154.08C186.698 153.813 187.295 153.68 187.968 153.68C188.528 153.68 189.018 153.773 189.438 153.96C189.865 154.147 190.222 154.41 190.508 154.75C190.795 155.083 191.012 155.487 191.158 155.96C191.305 156.433 191.378 156.957 191.378 157.53V164H189.418V157.53C189.418 156.803 189.252 156.24 188.918 155.84C188.585 155.433 188.075 155.23 187.388 155.23C186.888 155.23 186.418 155.35 185.978 155.59C185.545 155.823 185.142 156.143 184.768 156.55V164H182.818V149.24H184.768V155.13Z" fill="white"/>
</g>
<defs>
<filter id="filter0_d_1449_538" x="0" y="4" width="258" height="48" filterUnits="userSpaceOnUse" color-interpolation-filters="sRGB">
<feFlood flood-opacity="0" result="BackgroundImageFix"/>
<feColorMatrix in="SourceAlpha" type="matrix" values="0 0 0 0 0 0 0 0 0 0 0 0 0 0 0 0 0 0 127 0" result="hardAlpha"/>
<feOffset dy="4"/>
<feGaussianBlur stdDeviation="2"/>
<feComposite in2="hardAlpha" operator="out"/>
<feColorMatrix type="matrix" values="0 0 0 0 0 0 0 0 0 0 0 0 0 0 0 0 0 0 0.25 0"/>
<feBlend mode="normal" in2="BackgroundImageFix" result="effect1_dropShadow_1449_538"/>
<feBlend mode="normal" in="SourceGraphic" in2="effect1_dropShadow_1449_538" result="shape"/>
</filter>
<filter id="filter1_d_1449_538" x="0" y="48" width="258" height="48" filterUnits="userSpaceOnUse" color-interpolation-filters="sRGB">
<feFlood flood-opacity="0" result="BackgroundImageFix"/>
<feColorMatrix in="SourceAlpha" type="matrix" values="0 0 0 0 0 0 0 0 0 0 0 0 0 0 0 0 0 0 127 0" result="hardAlpha"/>
<feOffset dy="4"/>
<feGaussianBlur stdDeviation="2"/>
<feComposite in2="hardAlpha" operator="out"/>
<feColorMatrix type="matrix" values="0 0 0 0 0 0 0 0 0 0 0 0 0 0 0 0 0 0 0.25 0"/>
<feBlend mode="normal" in2="BackgroundImageFix" result="effect1_dropShadow_1449_538"/>
<feBlend mode="normal" in="SourceGraphic" in2="effect1_dropShadow_1449_538" result="shape"/>
</filter>
<filter id="filter2_d_1449_538" x="0" y="92" width="258" height="48" filterUnits="userSpaceOnUse" color-interpolation-filters="sRGB">
<feFlood flood-opacity="0" result="BackgroundImageFix"/>
<feColorMatrix in="SourceAlpha" type="matrix" values="0 0 0 0 0 0 0 0 0 0 0 0 0 0 0 0 0 0 127 0" result="hardAlpha"/>
<feOffset dy="4"/>
<feGaussianBlur stdDeviation="2"/>
<feComposite in2="hardAlpha" operator="out"/>
<feColorMatrix type="matrix" values="0 0 0 0 0 0 0 0 0 0 0 0 0 0 0 0 0 0 0.25 0"/>
<feBlend mode="normal" in2="BackgroundImageFix" result="effect1_dropShadow_1449_538"/>
<feBlend mode="normal" in="SourceGraphic" in2="effect1_dropShadow_1449_538" result="shape"/>
</filter>
<filter id="filter3_d_1449_538" x="0" y="136" width="258" height="48" filterUnits="userSpaceOnUse" color-interpolation-filters="sRGB">
<feFlood flood-opacity="0" result="BackgroundImageFix"/>
<feColorMatrix in="SourceAlpha" type="matrix" values="0 0 0 0 0 0 0 0 0 0 0 0 0 0 0 0 0 0 127 0" result="hardAlpha"/>
<feOffset dy="4"/>
<feGaussianBlur stdDeviation="2"/>
<feComposite in2="hardAlpha" operator="out"/>
<feColorMatrix type="matrix" values="0 0 0 0 0 0 0 0 0 0 0 0 0 0 0 0 0 0 0.25 0"/>
<feBlend mode="normal" in2="BackgroundImageFix" result="effect1_dropShadow_1449_538"/>
<feBlend mode="normal" in="SourceGraphic" in2="effect1_dropShadow_1449_538" result="shape"/>
</filter>
</defs>
</svg>
